<svg width="1440" height="909" viewBox="0 0 1440 909" fill="none" xmlns="http://www.w3.org/2000/svg">
<g filter="url(#filter0_d_45_583)">
<path d="M-1.22191 681.372C102.134 790.499 138.362 837.927 183.778 910.372" stroke="#00DFEE" stroke-width="5"/>
</g>
<g filter="url(#filter1_d_45_583)">
<path d="M1133.33 -3.84753C1243.31 151.317 1309.28 193.321 1445.28 241.79" stroke="#00DFEE" stroke-width="5"/>
</g>
<g filter="url(#filter2_d_45_583)">
<path d="M1259.55 788.727V792.989H1244.14V788.727H1259.55ZM1248.36 816V785.567C1248.36 783.862 1248.74 782.448 1249.48 781.323C1250.23 780.187 1251.21 779.34 1252.45 778.784C1253.68 778.216 1255.01 777.932 1256.46 777.932C1257.52 777.932 1258.44 778.021 1259.19 778.198C1259.95 778.364 1260.51 778.518 1260.88 778.66L1259.64 782.957C1259.39 782.886 1259.07 782.803 1258.68 782.708C1258.29 782.602 1257.81 782.548 1257.26 782.548C1255.97 782.548 1255.04 782.868 1254.49 783.507C1253.94 784.146 1253.67 785.07 1253.67 786.277V816H1248.36ZM1266.57 800.908C1266.57 796.457 1267.16 792.361 1268.33 788.621C1269.5 784.88 1271.21 781.43 1273.46 778.269H1278.32C1277.45 779.441 1276.63 780.879 1275.87 782.584C1275.12 784.288 1274.45 786.159 1273.89 788.195C1273.32 790.219 1272.87 792.32 1272.55 794.498C1272.23 796.664 1272.07 798.801 1272.07 800.908C1272.07 803.725 1272.35 806.578 1272.91 809.466C1273.47 812.354 1274.22 815.035 1275.16 817.509C1276.11 819.983 1277.16 822.001 1278.32 823.564H1273.46C1271.21 820.403 1269.5 816.953 1268.33 813.212C1267.16 809.472 1266.57 805.37 1266.57 800.908ZM1288.11 788.727L1294.13 799.345L1300.2 788.727H1306.01L1297.51 802.364L1306.08 816H1300.28L1294.13 805.808L1288.01 816H1282.18L1290.67 802.364L1282.29 788.727H1288.11ZM1321.67 800.908C1321.67 805.37 1321.09 809.472 1319.91 813.212C1318.74 816.953 1317.03 820.403 1314.78 823.564H1309.92C1310.79 822.392 1311.61 820.954 1312.37 819.249C1313.12 817.545 1313.79 815.68 1314.36 813.656C1314.92 811.62 1315.37 809.513 1315.69 807.335C1316.01 805.157 1316.17 803.015 1316.17 800.908C1316.17 798.102 1315.89 795.255 1315.33 792.367C1314.78 789.479 1314.02 786.798 1313.08 784.324C1312.13 781.85 1311.08 779.832 1309.92 778.269H1314.78C1317.03 781.43 1318.74 784.88 1319.91 788.621C1321.09 792.361 1321.67 796.457 1321.67 800.908ZM1332.06 798.546V793.876H1354.81V798.546H1332.06ZM1332.06 809.484V804.814H1354.81V809.484H1332.06ZM1375.15 816.55C1372.51 816.55 1370.23 815.953 1368.33 814.757C1366.43 813.55 1364.98 811.887 1363.96 809.768C1362.94 807.649 1362.43 805.222 1362.43 802.488C1362.43 799.718 1362.95 797.274 1364 795.155C1365.04 793.024 1366.51 791.361 1368.4 790.165C1370.29 788.97 1372.52 788.372 1375.09 788.372C1377.16 788.372 1379.01 788.757 1380.63 789.526C1382.25 790.284 1383.56 791.349 1384.56 792.722C1385.56 794.095 1386.16 795.699 1386.35 797.534H1381.18C1380.9 796.256 1380.25 795.155 1379.23 794.232C1378.22 793.308 1376.87 792.847 1375.18 792.847C1373.7 792.847 1372.41 793.237 1371.29 794.018C1370.19 794.788 1369.33 795.889 1368.72 797.321C1368.1 798.741 1367.8 800.422 1367.8 802.364C1367.8 804.352 1368.1 806.069 1368.7 807.513C1369.31 808.957 1370.16 810.076 1371.26 810.869C1372.37 811.662 1373.68 812.058 1375.18 812.058C1376.19 812.058 1377.1 811.875 1377.92 811.508C1378.75 811.129 1379.44 810.59 1379.99 809.892C1380.56 809.194 1380.96 808.353 1381.18 807.371H1386.35C1386.16 809.134 1385.59 810.709 1384.63 812.094C1383.67 813.479 1382.39 814.568 1380.78 815.361C1379.18 816.154 1377.3 816.55 1375.15 816.55ZM1403.52 816.55C1400.96 816.55 1398.73 815.964 1396.82 814.793C1394.92 813.621 1393.44 811.981 1392.38 809.874C1391.33 807.767 1390.8 805.305 1390.8 802.488C1390.8 799.659 1391.33 797.185 1392.38 795.066C1393.44 792.947 1394.92 791.302 1396.82 790.13C1398.73 788.958 1400.96 788.372 1403.52 788.372C1406.07 788.372 1408.3 788.958 1410.21 790.13C1412.12 791.302 1413.6 792.947 1414.65 795.066C1415.7 797.185 1416.23 799.659 1416.23 802.488C1416.23 805.305 1415.7 807.767 1414.65 809.874C1413.6 811.981 1412.12 813.621 1410.21 814.793C1408.3 815.964 1406.07 816.55 1403.52 816.55ZM1403.53 812.094C1405.19 812.094 1406.56 811.656 1407.65 810.78C1408.74 809.904 1409.55 808.738 1410.07 807.282C1410.6 805.826 1410.87 804.222 1410.87 802.47C1410.87 800.73 1410.6 799.132 1410.07 797.676C1409.55 796.208 1408.74 795.031 1407.65 794.143C1406.56 793.255 1405.19 792.811 1403.53 792.811C1401.86 792.811 1400.48 793.255 1399.38 794.143C1398.29 795.031 1397.48 796.208 1396.95 797.676C1396.43 799.132 1396.16 800.73 1396.16 802.47C1396.16 804.222 1396.43 805.826 1396.95 807.282C1397.48 808.738 1398.29 809.904 1399.38 810.78C1400.48 811.656 1401.86 812.094 1403.53 812.094ZM1442.59 795.386L1437.78 796.238C1437.58 795.622 1437.26 795.036 1436.82 794.48C1436.39 793.924 1435.81 793.468 1435.08 793.113C1434.35 792.758 1433.43 792.58 1432.33 792.58C1430.83 792.58 1429.57 792.918 1428.56 793.592C1427.56 794.255 1427.06 795.113 1427.06 796.167C1427.06 797.078 1427.39 797.812 1428.07 798.369C1428.74 798.925 1429.83 799.381 1431.33 799.736L1435.67 800.73C1438.18 801.31 1440.05 802.204 1441.28 803.411C1442.51 804.619 1443.12 806.187 1443.12 808.116C1443.12 809.75 1442.65 811.206 1441.7 812.484C1440.77 813.751 1439.46 814.745 1437.78 815.467C1436.11 816.189 1434.18 816.55 1431.97 816.55C1428.92 816.55 1426.43 815.899 1424.5 814.597C1422.57 813.283 1421.39 811.419 1420.95 809.004L1426.08 808.223C1426.4 809.561 1427.06 810.573 1428.05 811.259C1429.04 811.934 1430.34 812.271 1431.94 812.271C1433.68 812.271 1435.07 811.91 1436.11 811.188C1437.15 810.454 1437.67 809.561 1437.67 808.507C1437.67 807.655 1437.35 806.939 1436.71 806.359C1436.09 805.779 1435.12 805.341 1433.82 805.045L1429.2 804.033C1426.66 803.453 1424.78 802.529 1423.56 801.263C1422.35 799.996 1421.75 798.392 1421.75 796.451C1421.75 794.841 1422.2 793.433 1423.1 792.225C1424 791.018 1425.24 790.077 1426.82 789.402C1428.41 788.715 1430.23 788.372 1432.28 788.372C1435.22 788.372 1437.54 789.011 1439.24 790.29C1440.93 791.556 1442.05 793.255 1442.59 795.386Z" fill="#00DFEE" fill-opacity="0.73" shape-rendering="crispEdges"/>
</g>
<g filter="url(#filter3_d_45_583)">
<path d="M1268.08 604.526V562.338H1275.24V604.526H1268.08ZM1250.57 587.011V579.852H1292.75V587.011H1250.57Z" fill="#003855"/>
</g>
<g filter="url(#filter4_d_45_583)">
<path d="M1351.18 481.023V443.523H1357.55V481.023H1351.18ZM1335.61 465.455V459.091H1373.11V465.455H1335.61Z" fill="#01FFFF"/>
</g>
<g filter="url(#filter5_d_45_583)">
<circle cx="1106" cy="96" r="3" fill="url(#paint0_radial_45_583)" shape-rendering="crispEdges"/>
</g>
<g filter="url(#filter6_d_45_583)">
<circle cx="1023" cy="59" r="3" fill="url(#paint1_radial_45_583)" shape-rendering="crispEdges"/>
</g>
<g filter="url(#filter7_d_45_583)">
<circle cx="164" cy="62" r="3" transform="rotate(-180 164 62)" fill="url(#paint2_radial_45_583)" shape-rendering="crispEdges"/>
</g>
<g filter="url(#filter8_d_45_583)">
<circle cx="26" cy="231" r="3" transform="rotate(-180 26 231)" fill="url(#paint3_radial_45_583)" shape-rendering="crispEdges"/>
</g>
<g filter="url(#filter9_d_45_583)">
<circle cx="55" cy="547" r="3" transform="rotate(-180 55 547)" fill="url(#paint4_radial_45_583)" shape-rendering="crispEdges"/>
</g>
<g filter="url(#filter10_d_45_583)">
<circle cx="532" cy="48" r="3" transform="rotate(-180 532 48)" fill="url(#paint5_radial_45_583)" shape-rendering="crispEdges"/>
</g>
<g filter="url(#filter11_d_45_583)">
<circle cx="469" cy="105" r="3" transform="rotate(-180 469 105)" fill="url(#paint6_radial_45_583)" shape-rendering="crispEdges"/>
</g>
<g filter="url(#filter12_d_45_583)">
<circle cx="469" cy="801" r="3" transform="rotate(-180 469 801)" fill="url(#paint7_radial_45_583)" shape-rendering="crispEdges"/>
</g>
<g filter="url(#filter13_d_45_583)">
<circle cx="853" cy="713" r="3" transform="rotate(-180 853 713)" fill="url(#paint8_radial_45_583)" shape-rendering="crispEdges"/>
</g>
<g filter="url(#filter14_d_45_583)">
<circle cx="131" cy="771" r="3" transform="rotate(-180 131 771)" fill="url(#paint9_radial_45_583)" shape-rendering="crispEdges"/>
</g>
<g filter="url(#filter15_d_45_583)">
<circle cx="592" cy="102" r="3" transform="rotate(-180 592 102)" fill="url(#paint10_radial_45_583)" shape-rendering="crispEdges"/>
</g>
<g filter="url(#filter16_d_45_583)">
<circle cx="270" cy="848" r="3" transform="rotate(-180 270 848)" fill="url(#paint11_radial_45_583)" shape-rendering="crispEdges"/>
</g>
<g filter="url(#filter17_d_45_583)">
<circle cx="1151" cy="814" r="3" transform="rotate(-180 1151 814)" fill="url(#paint12_radial_45_583)" shape-rendering="crispEdges"/>
</g>
<g filter="url(#filter18_d_45_583)">
<circle cx="737" cy="413" r="3" transform="rotate(-180 737 413)" fill="url(#paint13_radial_45_583)" shape-rendering="crispEdges"/>
</g>
<g filter="url(#filter19_d_45_583)">
<circle cx="330" cy="35" r="3" transform="rotate(-180 330 35)" fill="url(#paint14_radial_45_583)" shape-rendering="crispEdges"/>
</g>
<g filter="url(#filter20_d_45_583)">
<circle cx="789" cy="71" r="3" fill="url(#paint15_radial_45_583)" shape-rendering="crispEdges"/>
</g>
<g filter="url(#filter21_d_45_583)">
<circle cx="894" cy="838" r="3" fill="url(#paint16_radial_45_583)" shape-rendering="crispEdges"/>
</g>
<g filter="url(#filter22_d_45_583)">
<circle cx="35" cy="841" r="3" transform="rotate(-180 35 841)" fill="url(#paint17_radial_45_583)" shape-rendering="crispEdges"/>
</g>
<g filter="url(#filter23_d_45_583)">
<circle cx="1262" cy="65" r="3" fill="url(#paint18_radial_45_583)" shape-rendering="crispEdges"/>
</g>
<circle cx="8" cy="137" r="25" fill="url(#paint19_radial_45_583)"/>
<defs>
<filter id="filter0_d_45_583" x="-10.0371" y="669.653" width="216.934" height="260.047" filterUnits="userSpaceOnUse" color-interpolation-filters="sRGB">
<feFlood flood-opacity="0" result="BackgroundImageFix"/>
<feColorMatrix in="SourceAlpha" type="matrix" values="0 0 0 0 0 0 0 0 0 0 0 0 0 0 0 0 0 0 127 0" result="hardAlpha"/>
<feOffset dx="7" dy="4"/>
<feGaussianBlur stdDeviation="7"/>
<feComposite in2="hardAlpha" operator="out"/>
<feColorMatrix type="matrix" values="0 0 0 0 0 0 0 0 0 0.87451 0 0 0 0 0.933333 0 0 0 1 0"/>
<feBlend mode="normal" in2="BackgroundImageFix" result="effect1_dropShadow_45_583"/>
<feBlend mode="normal" in="SourceGraphic" in2="effect1_dropShadow_45_583" result="shape"/>
</filter>
<filter id="filter1_d_45_583" x="1124.29" y="-13.2932" width="342.829" height="277.438" filterUnits="userSpaceOnUse" color-interpolation-filters="sRGB">
<feFlood flood-opacity="0" result="BackgroundImageFix"/>
<feColorMatrix in="SourceAlpha" type="matrix" values="0 0 0 0 0 0 0 0 0 0 0 0 0 0 0 0 0 0 127 0" result="hardAlpha"/>
<feOffset dx="7" dy="6"/>
<feGaussianBlur stdDeviation="7"/>
<feComposite in2="hardAlpha" operator="out"/>
<feColorMatrix type="matrix" values="0 0 0 0 0 0 0 0 0 0.87451 0 0 0 0 0.933333 0 0 0 1 0"/>
<feBlend mode="normal" in2="BackgroundImageFix" result="effect1_dropShadow_45_583"/>
<feBlend mode="normal" in="SourceGraphic" in2="effect1_dropShadow_45_583" result="shape"/>
</filter>
<filter id="filter2_d_45_583" x="1233.14" y="770.932" width="226.988" height="73.6322" filterUnits="userSpaceOnUse" color-interpolation-filters="sRGB">
<feFlood flood-opacity="0" result="BackgroundImageFix"/>
<feColorMatrix in="SourceAlpha" type="matrix" values="0 0 0 0 0 0 0 0 0 0 0 0 0 0 0 0 0 0 127 0" result="hardAlpha"/>
<feOffset dx="3" dy="7"/>
<feGaussianBlur stdDeviation="7"/>
<feComposite in2="hardAlpha" operator="out"/>
<feColorMatrix type="matrix" values="0 0 0 0 0 0 0 0 0 0.87451 0 0 0 0 0.933333 0 0 0 0.5 0"/>
<feBlend mode="normal" in2="BackgroundImageFix" result="effect1_dropShadow_45_583"/>
<feBlend mode="normal" in="SourceGraphic" in2="effect1_dropShadow_45_583" result="shape"/>
</filter>
<filter id="filter3_d_45_583" x="1247.57" y="556.338" width="54.1875" height="54.1875" filterUnits="userSpaceOnUse" color-interpolation-filters="sRGB">
<feFlood flood-opacity="0" result="BackgroundImageFix"/>
<feColorMatrix in="SourceAlpha" type="matrix" values="0 0 0 0 0 0 0 0 0 0 0 0 0 0 0 0 0 0 127 0" result="hardAlpha"/>
<feOffset dx="3"/>
<feGaussianBlur stdDeviation="3"/>
<feComposite in2="hardAlpha" operator="out"/>
<feColorMatrix type="matrix" values="0 0 0 0 0 0 0 0 0 0.937255 0 0 0 0 0.941176 0 0 0 0.5 0"/>
<feBlend mode="normal" in2="BackgroundImageFix" result="effect1_dropShadow_45_583"/>
<feBlend mode="normal" in="SourceGraphic" in2="effect1_dropShadow_45_583" result="shape"/>
</filter>
<filter id="filter4_d_45_583" x="1327.61" y="432.523" width="59.5" height="59.5" filterUnits="userSpaceOnUse" color-interpolation-filters="sRGB">
<feFlood flood-opacity="0" result="BackgroundImageFix"/>
<feColorMatrix in="SourceAlpha" type="matrix" values="0 0 0 0 0 0 0 0 0 0 0 0 0 0 0 0 0 0 127 0" result="hardAlpha"/>
<feOffset dx="3"/>
<feGaussianBlur stdDeviation="5.5"/>
<feComposite in2="hardAlpha" operator="out"/>
<feColorMatrix type="matrix" values="0 0 0 0 0 0 0 0 0 0.286275 0 0 0 0 0.372549 0 0 0 1 0"/>
<feBlend mode="normal" in2="BackgroundImageFix" result="effect1_dropShadow_45_583"/>
<feBlend mode="normal" in="SourceGraphic" in2="effect1_dropShadow_45_583" result="shape"/>
</filter>
<filter id="filter5_d_45_583" x="986" y="-20" width="240" height="240" filterUnits="userSpaceOnUse" color-interpolation-filters="sRGB">
<feFlood flood-opacity="0" result="BackgroundImageFix"/>
<feColorMatrix in="SourceAlpha" type="matrix" values="0 0 0 0 0 0 0 0 0 0 0 0 0 0 0 0 0 0 127 0" result="hardAlpha"/>
<feOffset dy="4"/>
<feGaussianBlur stdDeviation="58.5"/>
<feComposite in2="hardAlpha" operator="out"/>
<feColorMatrix type="matrix" values="0 0 0 0 1 0 0 0 0 1 0 0 0 0 1 0 0 0 1 0"/>
<feBlend mode="normal" in2="BackgroundImageFix" result="effect1_dropShadow_45_583"/>
<feBlend mode="normal" in="SourceGraphic" in2="effect1_dropShadow_45_583" result="shape"/>
</filter>
<filter id="filter6_d_45_583" x="903" y="-57" width="240" height="240" filterUnits="userSpaceOnUse" color-interpolation-filters="sRGB">
<feFlood flood-opacity="0" result="BackgroundImageFix"/>
<feColorMatrix in="SourceAlpha" type="matrix" values="0 0 0 0 0 0 0 0 0 0 0 0 0 0 0 0 0 0 127 0" result="hardAlpha"/>
<feOffset dy="4"/>
<feGaussianBlur stdDeviation="58.5"/>
<feComposite in2="hardAlpha" operator="out"/>
<feColorMatrix type="matrix" values="0 0 0 0 1 0 0 0 0 1 0 0 0 0 1 0 0 0 1 0"/>
<feBlend mode="normal" in2="BackgroundImageFix" result="effect1_dropShadow_45_583"/>
<feBlend mode="normal" in="SourceGraphic" in2="effect1_dropShadow_45_583" result="shape"/>
</filter>
<filter id="filter7_d_45_583" x="44" y="-54" width="240" height="240" filterUnits="userSpaceOnUse" color-interpolation-filters="sRGB">
<feFlood flood-opacity="0" result="BackgroundImageFix"/>
<feColorMatrix in="SourceAlpha" type="matrix" values="0 0 0 0 0 0 0 0 0 0 0 0 0 0 0 0 0 0 127 0" result="hardAlpha"/>
<feOffset dy="4"/>
<feGaussianBlur stdDeviation="58.5"/>
<feComposite in2="hardAlpha" operator="out"/>
<feColorMatrix type="matrix" values="0 0 0 0 1 0 0 0 0 1 0 0 0 0 1 0 0 0 1 0"/>
<feBlend mode="normal" in2="BackgroundImageFix" result="effect1_dropShadow_45_583"/>
<feBlend mode="normal" in="SourceGraphic" in2="effect1_dropShadow_45_583" result="shape"/>
</filter>
<filter id="filter8_d_45_583" x="-94" y="115" width="240" height="240" filterUnits="userSpaceOnUse" color-interpolation-filters="sRGB">
<feFlood flood-opacity="0" result="BackgroundImageFix"/>
<feColorMatrix in="SourceAlpha" type="matrix" values="0 0 0 0 0 0 0 0 0 0 0 0 0 0 0 0 0 0 127 0" result="hardAlpha"/>
<feOffset dy="4"/>
<feGaussianBlur stdDeviation="58.5"/>
<feComposite in2="hardAlpha" operator="out"/>
<feColorMatrix type="matrix" values="0 0 0 0 1 0 0 0 0 1 0 0 0 0 1 0 0 0 1 0"/>
<feBlend mode="normal" in2="BackgroundImageFix" result="effect1_dropShadow_45_583"/>
<feBlend mode="normal" in="SourceGraphic" in2="effect1_dropShadow_45_583" result="shape"/>
</filter>
<filter id="filter9_d_45_583" x="-65" y="431" width="240" height="240" filterUnits="userSpaceOnUse" color-interpolation-filters="sRGB">
<feFlood flood-opacity="0" result="BackgroundImageFix"/>
<feColorMatrix in="SourceAlpha" type="matrix" values="0 0 0 0 0 0 0 0 0 0 0 0 0 0 0 0 0 0 127 0" result="hardAlpha"/>
<feOffset dy="4"/>
<feGaussianBlur stdDeviation="58.5"/>
<feComposite in2="hardAlpha" operator="out"/>
<feColorMatrix type="matrix" values="0 0 0 0 1 0 0 0 0 1 0 0 0 0 1 0 0 0 1 0"/>
<feBlend mode="normal" in2="BackgroundImageFix" result="effect1_dropShadow_45_583"/>
<feBlend mode="normal" in="SourceGraphic" in2="effect1_dropShadow_45_583" result="shape"/>
</filter>
<filter id="filter10_d_45_583" x="412" y="-68" width="240" height="240" filterUnits="userSpaceOnUse" color-interpolation-filters="sRGB">
<feFlood flood-opacity="0" result="BackgroundImageFix"/>
<feColorMatrix in="SourceAlpha" type="matrix" values="0 0 0 0 0 0 0 0 0 0 0 0 0 0 0 0 0 0 127 0" result="hardAlpha"/>
<feOffset dy="4"/>
<feGaussianBlur stdDeviation="58.5"/>
<feComposite in2="hardAlpha" operator="out"/>
<feColorMatrix type="matrix" values="0 0 0 0 1 0 0 0 0 1 0 0 0 0 1 0 0 0 1 0"/>
<feBlend mode="normal" in2="BackgroundImageFix" result="effect1_dropShadow_45_583"/>
<feBlend mode="normal" in="SourceGraphic" in2="effect1_dropShadow_45_583" result="shape"/>
</filter>
<filter id="filter11_d_45_583" x="349" y="-11" width="240" height="240" filterUnits="userSpaceOnUse" color-interpolation-filters="sRGB">
<feFlood flood-opacity="0" result="BackgroundImageFix"/>
<feColorMatrix in="SourceAlpha" type="matrix" values="0 0 0 0 0 0 0 0 0 0 0 0 0 0 0 0 0 0 127 0" result="hardAlpha"/>
<feOffset dy="4"/>
<feGaussianBlur stdDeviation="58.5"/>
<feComposite in2="hardAlpha" operator="out"/>
<feColorMatrix type="matrix" values="0 0 0 0 1 0 0 0 0 1 0 0 0 0 1 0 0 0 1 0"/>
<feBlend mode="normal" in2="BackgroundImageFix" result="effect1_dropShadow_45_583"/>
<feBlend mode="normal" in="SourceGraphic" in2="effect1_dropShadow_45_583" result="shape"/>
</filter>
<filter id="filter12_d_45_583" x="349" y="685" width="240" height="240" filterUnits="userSpaceOnUse" color-interpolation-filters="sRGB">
<feFlood flood-opacity="0" result="BackgroundImageFix"/>
<feColorMatrix in="SourceAlpha" type="matrix" values="0 0 0 0 0 0 0 0 0 0 0 0 0 0 0 0 0 0 127 0" result="hardAlpha"/>
<feOffset dy="4"/>
<feGaussianBlur stdDeviation="58.5"/>
<feComposite in2="hardAlpha" operator="out"/>
<feColorMatrix type="matrix" values="0 0 0 0 1 0 0 0 0 1 0 0 0 0 1 0 0 0 1 0"/>
<feBlend mode="normal" in2="BackgroundImageFix" result="effect1_dropShadow_45_583"/>
<feBlend mode="normal" in="SourceGraphic" in2="effect1_dropShadow_45_583" result="shape"/>
</filter>
<filter id="filter13_d_45_583" x="733" y="597" width="240" height="240" filterUnits="userSpaceOnUse" color-interpolation-filters="sRGB">
<feFlood flood-opacity="0" result="BackgroundImageFix"/>
<feColorMatrix in="SourceAlpha" type="matrix" values="0 0 0 0 0 0 0 0 0 0 0 0 0 0 0 0 0 0 127 0" result="hardAlpha"/>
<feOffset dy="4"/>
<feGaussianBlur stdDeviation="58.5"/>
<feComposite in2="hardAlpha" operator="out"/>
<feColorMatrix type="matrix" values="0 0 0 0 1 0 0 0 0 1 0 0 0 0 1 0 0 0 1 0"/>
<feBlend mode="normal" in2="BackgroundImageFix" result="effect1_dropShadow_45_583"/>
<feBlend mode="normal" in="SourceGraphic" in2="effect1_dropShadow_45_583" result="shape"/>
</filter>
<filter id="filter14_d_45_583" x="11" y="655" width="240" height="240" filterUnits="userSpaceOnUse" color-interpolation-filters="sRGB">
<feFlood flood-opacity="0" result="BackgroundImageFix"/>
<feColorMatrix in="SourceAlpha" type="matrix" values="0 0 0 0 0 0 0 0 0 0 0 0 0 0 0 0 0 0 127 0" result="hardAlpha"/>
<feOffset dy="4"/>
<feGaussianBlur stdDeviation="58.5"/>
<feComposite in2="hardAlpha" operator="out"/>
<feColorMatrix type="matrix" values="0 0 0 0 1 0 0 0 0 1 0 0 0 0 1 0 0 0 1 0"/>
<feBlend mode="normal" in2="BackgroundImageFix" result="effect1_dropShadow_45_583"/>
<feBlend mode="normal" in="SourceGraphic" in2="effect1_dropShadow_45_583" result="shape"/>
</filter>
<filter id="filter15_d_45_583" x="472" y="-14" width="240" height="240" filterUnits="userSpaceOnUse" color-interpolation-filters="sRGB">
<feFlood flood-opacity="0" result="BackgroundImageFix"/>
<feColorMatrix in="SourceAlpha" type="matrix" values="0 0 0 0 0 0 0 0 0 0 0 0 0 0 0 0 0 0 127 0" result="hardAlpha"/>
<feOffset dy="4"/>
<feGaussianBlur stdDeviation="58.5"/>
<feComposite in2="hardAlpha" operator="out"/>
<feColorMatrix type="matrix" values="0 0 0 0 1 0 0 0 0 1 0 0 0 0 1 0 0 0 1 0"/>
<feBlend mode="normal" in2="BackgroundImageFix" result="effect1_dropShadow_45_583"/>
<feBlend mode="normal" in="SourceGraphic" in2="effect1_dropShadow_45_583" result="shape"/>
</filter>
<filter id="filter16_d_45_583" x="150" y="732" width="240" height="240" filterUnits="userSpaceOnUse" color-interpolation-filters="sRGB">
<feFlood flood-opacity="0" result="BackgroundImageFix"/>
<feColorMatrix in="SourceAlpha" type="matrix" values="0 0 0 0 0 0 0 0 0 0 0 0 0 0 0 0 0 0 127 0" result="hardAlpha"/>
<feOffset dy="4"/>
<feGaussianBlur stdDeviation="58.5"/>
<feComposite in2="hardAlpha" operator="out"/>
<feColorMatrix type="matrix" values="0 0 0 0 1 0 0 0 0 1 0 0 0 0 1 0 0 0 1 0"/>
<feBlend mode="normal" in2="BackgroundImageFix" result="effect1_dropShadow_45_583"/>
<feBlend mode="normal" in="SourceGraphic" in2="effect1_dropShadow_45_583" result="shape"/>
</filter>
<filter id="filter17_d_45_583" x="1031" y="698" width="240" height="240" filterUnits="userSpaceOnUse" color-interpolation-filters="sRGB">
<feFlood flood-opacity="0" result="BackgroundImageFix"/>
<feColorMatrix in="SourceAlpha" type="matrix" values="0 0 0 0 0 0 0 0 0 0 0 0 0 0 0 0 0 0 127 0" result="hardAlpha"/>
<feOffset dy="4"/>
<feGaussianBlur stdDeviation="58.5"/>
<feComposite in2="hardAlpha" operator="out"/>
<feColorMatrix type="matrix" values="0 0 0 0 1 0 0 0 0 1 0 0 0 0 1 0 0 0 1 0"/>
<feBlend mode="normal" in2="BackgroundImageFix" result="effect1_dropShadow_45_583"/>
<feBlend mode="normal" in="SourceGraphic" in2="effect1_dropShadow_45_583" result="shape"/>
</filter>
<filter id="filter18_d_45_583" x="617" y="297" width="240" height="240" filterUnits="userSpaceOnUse" color-interpolation-filters="sRGB">
<feFlood flood-opacity="0" result="BackgroundImageFix"/>
<feColorMatrix in="SourceAlpha" type="matrix" values="0 0 0 0 0 0 0 0 0 0 0 0 0 0 0 0 0 0 127 0" result="hardAlpha"/>
<feOffset dy="4"/>
<feGaussianBlur stdDeviation="58.5"/>
<feComposite in2="hardAlpha" operator="out"/>
<feColorMatrix type="matrix" values="0 0 0 0 1 0 0 0 0 1 0 0 0 0 1 0 0 0 1 0"/>
<feBlend mode="normal" in2="BackgroundImageFix" result="effect1_dropShadow_45_583"/>
<feBlend mode="normal" in="SourceGraphic" in2="effect1_dropShadow_45_583" result="shape"/>
</filter>
<filter id="filter19_d_45_583" x="210" y="-81" width="240" height="240" filterUnits="userSpaceOnUse" color-interpolation-filters="sRGB">
<feFlood flood-opacity="0" result="BackgroundImageFix"/>
<feColorMatrix in="SourceAlpha" type="matrix" values="0 0 0 0 0 0 0 0 0 0 0 0 0 0 0 0 0 0 127 0" result="hardAlpha"/>
<feOffset dy="4"/>
<feGaussianBlur stdDeviation="58.5"/>
<feComposite in2="hardAlpha" operator="out"/>
<feColorMatrix type="matrix" values="0 0 0 0 1 0 0 0 0 1 0 0 0 0 1 0 0 0 1 0"/>
<feBlend mode="normal" in2="BackgroundImageFix" result="effect1_dropShadow_45_583"/>
<feBlend mode="normal" in="SourceGraphic" in2="effect1_dropShadow_45_583" result="shape"/>
</filter>
<filter id="filter20_d_45_583" x="669" y="-45" width="240" height="240" filterUnits="userSpaceOnUse" color-interpolation-filters="sRGB">
<feFlood flood-opacity="0" result="BackgroundImageFix"/>
<feColorMatrix in="SourceAlpha" type="matrix" values="0 0 0 0 0 0 0 0 0 0 0 0 0 0 0 0 0 0 127 0" result="hardAlpha"/>
<feOffset dy="4"/>
<feGaussianBlur stdDeviation="58.5"/>
<feComposite in2="hardAlpha" operator="out"/>
<feColorMatrix type="matrix" values="0 0 0 0 1 0 0 0 0 1 0 0 0 0 1 0 0 0 1 0"/>
<feBlend mode="normal" in2="BackgroundImageFix" result="effect1_dropShadow_45_583"/>
<feBlend mode="normal" in="SourceGraphic" in2="effect1_dropShadow_45_583" result="shape"/>
</filter>
<filter id="filter21_d_45_583" x="774" y="722" width="240" height="240" filterUnits="userSpaceOnUse" color-interpolation-filters="sRGB">
<feFlood flood-opacity="0" result="BackgroundImageFix"/>
<feColorMatrix in="SourceAlpha" type="matrix" values="0 0 0 0 0 0 0 0 0 0 0 0 0 0 0 0 0 0 127 0" result="hardAlpha"/>
<feOffset dy="4"/>
<feGaussianBlur stdDeviation="58.5"/>
<feComposite in2="hardAlpha" operator="out"/>
<feColorMatrix type="matrix" values="0 0 0 0 1 0 0 0 0 1 0 0 0 0 1 0 0 0 1 0"/>
<feBlend mode="normal" in2="BackgroundImageFix" result="effect1_dropShadow_45_583"/>
<feBlend mode="normal" in="SourceGraphic" in2="effect1_dropShadow_45_583" result="shape"/>
</filter>
<filter id="filter22_d_45_583" x="-85" y="725" width="240" height="240" filterUnits="userSpaceOnUse" color-interpolation-filters="sRGB">
<feFlood flood-opacity="0" result="BackgroundImageFix"/>
<feColorMatrix in="SourceAlpha" type="matrix" values="0 0 0 0 0 0 0 0 0 0 0 0 0 0 0 0 0 0 127 0" result="hardAlpha"/>
<feOffset dy="4"/>
<feGaussianBlur stdDeviation="58.5"/>
<feComposite in2="hardAlpha" operator="out"/>
<feColorMatrix type="matrix" values="0 0 0 0 1 0 0 0 0 1 0 0 0 0 1 0 0 0 1 0"/>
<feBlend mode="normal" in2="BackgroundImageFix" result="effect1_dropShadow_45_583"/>
<feBlend mode="normal" in="SourceGraphic" in2="effect1_dropShadow_45_583" result="shape"/>
</filter>
<filter id="filter23_d_45_583" x="1142" y="-51" width="240" height="240" filterUnits="userSpaceOnUse" color-interpolation-filters="sRGB">
<feFlood flood-opacity="0" result="BackgroundImageFix"/>
<feColorMatrix in="SourceAlpha" type="matrix" values="0 0 0 0 0 0 0 0 0 0 0 0 0 0 0 0 0 0 127 0" result="hardAlpha"/>
<feOffset dy="4"/>
<feGaussianBlur stdDeviation="58.5"/>
<feComposite in2="hardAlpha" operator="out"/>
<feColorMatrix type="matrix" values="0 0 0 0 1 0 0 0 0 1 0 0 0 0 1 0 0 0 1 0"/>
<feBlend mode="normal" in2="BackgroundImageFix" result="effect1_dropShadow_45_583"/>
<feBlend mode="normal" in="SourceGraphic" in2="effect1_dropShadow_45_583" result="shape"/>
</filter>
<radialGradient id="paint0_radial_45_583" cx="0" cy="0" r="1" gradientUnits="userSpaceOnUse" gradientTransform="translate(1106 96) rotate(90) scale(3)">
<stop stop-color="#00EFF0"/>
<stop offset="0.703125" stop-color="#003C61" stop-opacity="0.55"/>
<stop offset="1" stop-color="#00365C" stop-opacity="0"/>
</radialGradient>
<radialGradient id="paint1_radial_45_583" cx="0" cy="0" r="1" gradientUnits="userSpaceOnUse" gradientTransform="translate(1023 59) rotate(90) scale(3)">
<stop stop-color="#00EFF0"/>
<stop offset="0.703125" stop-color="#003C61" stop-opacity="0.55"/>
<stop offset="1" stop-color="#00365C" stop-opacity="0"/>
</radialGradient>
<radialGradient id="paint2_radial_45_583" cx="0" cy="0" r="1" gradientUnits="userSpaceOnUse" gradientTransform="translate(164 62) rotate(90) scale(3)">
<stop stop-color="#00EFF0"/>
<stop offset="0.703125" stop-color="#003C61" stop-opacity="0.55"/>
<stop offset="1" stop-color="#00365C" stop-opacity="0"/>
</radialGradient>
<radialGradient id="paint3_radial_45_583" cx="0" cy="0" r="1" gradientUnits="userSpaceOnUse" gradientTransform="translate(26 231) rotate(90) scale(3)">
<stop stop-color="#00EFF0"/>
<stop offset="0.703125" stop-color="#003C61" stop-opacity="0.55"/>
<stop offset="1" stop-color="#00365C" stop-opacity="0"/>
</radialGradient>
<radialGradient id="paint4_radial_45_583" cx="0" cy="0" r="1" gradientUnits="userSpaceOnUse" gradientTransform="translate(55 547) rotate(90) scale(3)">
<stop stop-color="#00EFF0"/>
<stop offset="0.703125" stop-color="#003C61" stop-opacity="0.55"/>
<stop offset="1" stop-color="#00365C" stop-opacity="0"/>
</radialGradient>
<radialGradient id="paint5_radial_45_583" cx="0" cy="0" r="1" gradientUnits="userSpaceOnUse" gradientTransform="translate(532 48) rotate(90) scale(3)">
<stop stop-color="#00EFF0"/>
<stop offset="0.703125" stop-color="#003C61" stop-opacity="0.55"/>
<stop offset="1" stop-color="#00365C" stop-opacity="0"/>
</radialGradient>
<radialGradient id="paint6_radial_45_583" cx="0" cy="0" r="1" gradientUnits="userSpaceOnUse" gradientTransform="translate(469 105) rotate(90) scale(3)">
<stop stop-color="#00EFF0"/>
<stop offset="0.703125" stop-color="#003C61" stop-opacity="0.55"/>
<stop offset="1" stop-color="#00365C" stop-opacity="0"/>
</radialGradient>
<radialGradient id="paint7_radial_45_583" cx="0" cy="0" r="1" gradientUnits="userSpaceOnUse" gradientTransform="translate(469 801) rotate(90) scale(3)">
<stop stop-color="#00EFF0"/>
<stop offset="0.703125" stop-color="#003C61" stop-opacity="0.55"/>
<stop offset="1" stop-color="#00365C" stop-opacity="0"/>
</radialGradient>
<radialGradient id="paint8_radial_45_583" cx="0" cy="0" r="1" gradientUnits="userSpaceOnUse" gradientTransform="translate(853 713) rotate(90) scale(3)">
<stop stop-color="#00EFF0"/>
<stop offset="0.703125" stop-color="#003C61" stop-opacity="0.55"/>
<stop offset="1" stop-color="#00365C" stop-opacity="0"/>
</radialGradient>
<radialGradient id="paint9_radial_45_583" cx="0" cy="0" r="1" gradientUnits="userSpaceOnUse" gradientTransform="translate(131 771) rotate(90) scale(3)">
<stop stop-color="#00EFF0"/>
<stop offset="0.703125" stop-color="#003C61" stop-opacity="0.55"/>
<stop offset="1" stop-color="#00365C" stop-opacity="0"/>
</radialGradient>
<radialGradient id="paint10_radial_45_583" cx="0" cy="0" r="1" gradientUnits="userSpaceOnUse" gradientTransform="translate(592 102) rotate(90) scale(3)">
<stop stop-color="#00EFF0"/>
<stop offset="0.703125" stop-color="#003C61" stop-opacity="0.55"/>
<stop offset="1" stop-color="#00365C" stop-opacity="0"/>
</radialGradient>
<radialGradient id="paint11_radial_45_583" cx="0" cy="0" r="1" gradientUnits="userSpaceOnUse" gradientTransform="translate(270 848) rotate(90) scale(3)">
<stop stop-color="#00EFF0"/>
<stop offset="0.703125" stop-color="#003C61" stop-opacity="0.55"/>
<stop offset="1" stop-color="#00365C" stop-opacity="0"/>
</radialGradient>
<radialGradient id="paint12_radial_45_583" cx="0" cy="0" r="1" gradientUnits="userSpaceOnUse" gradientTransform="translate(1151 814) rotate(90) scale(3)">
<stop stop-color="#00EFF0"/>
<stop offset="0.703125" stop-color="#003C61" stop-opacity="0.55"/>
<stop offset="1" stop-color="#00365C" stop-opacity="0"/>
</radialGradient>
<radialGradient id="paint13_radial_45_583" cx="0" cy="0" r="1" gradientUnits="userSpaceOnUse" gradientTransform="translate(737 413) rotate(90) scale(3)">
<stop stop-color="#00EFF0"/>
<stop offset="0.703125" stop-color="#003C61" stop-opacity="0.55"/>
<stop offset="1" stop-color="#00365C" stop-opacity="0"/>
</radialGradient>
<radialGradient id="paint14_radial_45_583" cx="0" cy="0" r="1" gradientUnits="userSpaceOnUse" gradientTransform="translate(330 35) rotate(90) scale(3)">
<stop stop-color="#00EFF0"/>
<stop offset="0.703125" stop-color="#003C61" stop-opacity="0.55"/>
<stop offset="1" stop-color="#00365C" stop-opacity="0"/>
</radialGradient>
<radialGradient id="paint15_radial_45_583" cx="0" cy="0" r="1" gradientUnits="userSpaceOnUse" gradientTransform="translate(789 71) rotate(90) scale(3)">
<stop stop-color="#00EFF0"/>
<stop offset="0.703125" stop-color="#003C61" stop-opacity="0.55"/>
<stop offset="1" stop-color="#00365C" stop-opacity="0"/>
</radialGradient>
<radialGradient id="paint16_radial_45_583" cx="0" cy="0" r="1" gradientUnits="userSpaceOnUse" gradientTransform="translate(894 838) rotate(90) scale(3)">
<stop stop-color="#00EFF0"/>
<stop offset="0.703125" stop-color="#003C61" stop-opacity="0.55"/>
<stop offset="1" stop-color="#00365C" stop-opacity="0"/>
</radialGradient>
<radialGradient id="paint17_radial_45_583" cx="0" cy="0" r="1" gradientUnits="userSpaceOnUse" gradientTransform="translate(35 841) rotate(90) scale(3)">
<stop stop-color="#00EFF0"/>
<stop offset="0.703125" stop-color="#003C61" stop-opacity="0.55"/>
<stop offset="1" stop-color="#00365C" stop-opacity="0"/>
</radialGradient>
<radialGradient id="paint18_radial_45_583" cx="0" cy="0" r="1" gradientUnits="userSpaceOnUse" gradientTransform="translate(1262 65) rotate(90) scale(3)">
<stop stop-color="#00EFF0"/>
<stop offset="0.703125" stop-color="#003C61" stop-opacity="0.55"/>
<stop offset="1" stop-color="#00365C" stop-opacity="0"/>
</radialGradient>
<radialGradient id="paint19_radial_45_583" cx="0" cy="0" r="1" gradientUnits="userSpaceOnUse" gradientTransform="translate(8 137) rotate(90) scale(25)">
<stop stop-color="#00DDED"/>
<stop offset="0.567708" stop-color="#00DDED" stop-opacity="0.77"/>
<stop offset="1" stop-color="#00DDED" stop-opacity="0.09"/>
</radialGradient>
</defs>
</svg>
