<svg width="243" height="244" viewBox="0 0 243 244" fill="none" xmlns="http://www.w3.org/2000/svg">
<path d="M112.142 231.295C170.69 231.295 218.152 185.034 218.152 127.969C218.152 70.9037 170.69 24.6432 112.142 24.6432C53.5938 24.6432 6.13123 70.9037 6.13123 127.969C6.13123 185.034 53.5938 231.295 112.142 231.295Z" fill="#DFD6FF"/>
<path d="M229 127.969C229 165.043 210.827 197.98 182.69 218.778" stroke="#FFD100" stroke-width="5.524" stroke-miterlimit="10" stroke-linecap="round" stroke-linejoin="round"/>
<path d="M219.335 82.541C224.038 93.0698 227.157 104.426 228.396 116.324" stroke="#FFD100" stroke-width="5.524" stroke-miterlimit="10" stroke-linecap="round" stroke-linejoin="round"/>
<path d="M20.7595 196.209C13.3463 187.377 7.22951 177.313 2.77155 166.213" stroke="#FFD100" stroke-width="5.524" stroke-miterlimit="10" stroke-linecap="round" stroke-linejoin="round"/>
<path d="M145.602 19.0001C147.743 19.7503 149.872 20.5699 151.985 21.46" stroke="#FFD100" stroke-width="5.524" stroke-miterlimit="10" stroke-linecap="round" stroke-linejoin="round"/>
<path d="M118.013 13.1357C124.609 13.6795 131.192 14.8114 137.688 16.5552" stroke="#FFD100" stroke-width="5.524" stroke-miterlimit="10" stroke-linecap="round" stroke-linejoin="round"/>
<path d="M101.69 210.557C151.336 210.557 191.582 171.33 191.582 122.941C191.582 74.552 151.336 35.3251 101.69 35.3251C52.0436 35.3251 11.7975 74.552 11.7975 122.941C11.7975 171.33 52.0436 210.557 101.69 210.557Z" fill="#6033FF"/>
<path d="M71.3448 198.892L59.1165 236.76C57.3715 241.287 62.5922 245.305 66.5213 242.46L131.868 195.144L71.3448 198.892Z" fill="#6033FF"/>
<path d="M57.1364 136.364H62.9318L67.7898 142.756L69.0682 144.46L76.3125 154.091H70.517L65.7443 147.699L64.5511 146.08L57.1364 136.364ZM78.1023 128.182C78.1023 132.784 77.2713 136.761 75.6094 140.114C73.9474 143.466 71.6676 146.051 68.7699 147.869C65.8722 149.688 62.5625 150.597 58.8409 150.597C55.1193 150.597 51.8097 149.688 48.9119 147.869C46.0142 146.051 43.7344 143.466 42.0724 140.114C40.4105 136.761 39.5795 132.784 39.5795 128.182C39.5795 123.58 40.4105 119.602 42.0724 116.25C43.7344 112.898 46.0142 110.312 48.9119 108.494C51.8097 106.676 55.1193 105.767 58.8409 105.767C62.5625 105.767 65.8722 106.676 68.7699 108.494C71.6676 110.312 73.9474 112.898 75.6094 116.25C77.2713 119.602 78.1023 123.58 78.1023 128.182ZM72.9886 128.182C72.9886 124.403 72.3565 121.214 71.0923 118.615C69.8423 116.016 68.1449 114.048 66 112.713C63.8693 111.378 61.483 110.71 58.8409 110.71C56.1989 110.71 53.8054 111.378 51.6605 112.713C49.5298 114.048 47.8324 116.016 46.5682 118.615C45.3182 121.214 44.6932 124.403 44.6932 128.182C44.6932 131.96 45.3182 135.149 46.5682 137.749C47.8324 140.348 49.5298 142.315 51.6605 143.651C53.8054 144.986 56.1989 145.653 58.8409 145.653C61.483 145.653 63.8693 144.986 66 143.651C68.1449 142.315 69.8423 140.348 71.0923 137.749C72.3565 135.149 72.9886 131.96 72.9886 128.182ZM106.93 136.619V117.273H111.959V150H106.93V144.46H106.589C105.822 146.122 104.629 147.536 103.01 148.7C101.391 149.851 99.3452 150.426 96.8736 150.426C94.8281 150.426 93.0099 149.979 91.419 149.084C89.8281 148.175 88.5781 146.811 87.669 144.993C86.7599 143.161 86.3054 140.852 86.3054 138.068V117.273H91.3338V137.727C91.3338 140.114 92.0014 142.017 93.3366 143.438C94.6861 144.858 96.4048 145.568 98.4929 145.568C99.7429 145.568 101.014 145.249 102.307 144.609C103.614 143.97 104.707 142.99 105.588 141.669C106.483 140.348 106.93 138.665 106.93 136.619ZM121.169 150V117.273H126.197V150H121.169ZM123.725 111.818C122.745 111.818 121.9 111.484 121.19 110.817C120.494 110.149 120.146 109.347 120.146 108.409C120.146 107.472 120.494 106.669 121.19 106.001C121.9 105.334 122.745 105 123.725 105C124.706 105 125.544 105.334 126.24 106.001C126.95 106.669 127.305 107.472 127.305 108.409C127.305 109.347 126.95 110.149 126.24 110.817C125.544 111.484 124.706 111.818 123.725 111.818ZM134.469 150V146.165L153.049 122.301V121.96H135.066V117.273H159.526V121.278L141.458 144.972V145.312H160.123V150H134.469Z" fill="white"/>
<path d="M56.0824 74.5455H59.7614L68.4119 95.6747H68.7102L77.3608 74.5455H81.0398V100H78.1562V80.6605H77.9077L69.9531 100H67.169L59.2145 80.6605H58.9659V100H56.0824V74.5455ZM92.4403 100.447C91.2305 100.447 90.1326 100.22 89.1466 99.7638C88.1605 99.2998 87.3775 98.6328 86.7975 97.7628C86.2175 96.8845 85.9275 95.8239 85.9275 94.581C85.9275 93.4872 86.1429 92.6006 86.5738 91.9212C87.0046 91.2334 87.5805 90.6948 88.3014 90.3054C89.0223 89.916 89.8177 89.6259 90.6878 89.4354C91.5661 89.2365 92.4485 89.0791 93.3351 88.9631C94.4952 88.8139 95.4356 88.7021 96.1565 88.6275C96.8857 88.5446 97.416 88.4079 97.7474 88.2173C98.0872 88.0268 98.257 87.6953 98.257 87.223V87.1236C98.257 85.8973 97.9214 84.9444 97.2503 84.2649C96.5874 83.5855 95.5806 83.2457 94.23 83.2457C92.8297 83.2457 91.7318 83.5523 90.9363 84.1655C90.1409 84.7786 89.5816 85.4332 89.2584 86.1293L86.4743 85.1349C86.9715 83.9749 87.6344 83.0717 88.463 82.4254C89.2999 81.7708 90.2113 81.3151 91.1974 81.0582C92.1917 80.7931 93.1694 80.6605 94.1306 80.6605C94.7438 80.6605 95.4481 80.7351 96.2435 80.8842C97.0473 81.0251 97.822 81.3192 98.5677 81.7667C99.3218 82.2141 99.9474 82.8894 100.445 83.7926C100.942 84.6958 101.19 85.9055 101.19 87.4219V100H98.257V97.4148H98.1079C97.909 97.8291 97.5776 98.2724 97.1135 98.7447C96.6495 99.217 96.0322 99.6188 95.2616 99.9503C94.491 100.282 93.5506 100.447 92.4403 100.447ZM92.8877 97.8125C94.0477 97.8125 95.0255 97.5846 95.8209 97.1289C96.6247 96.6732 97.2296 96.0849 97.6356 95.364C98.0499 94.6431 98.257 93.8849 98.257 93.0895V90.4048C98.1327 90.554 97.8593 90.6907 97.4367 90.815C97.0224 90.931 96.5418 91.0346 95.9949 91.1257C95.4564 91.2086 94.9302 91.2831 94.4165 91.3494C93.911 91.4074 93.5009 91.4571 93.186 91.4986C92.4237 91.598 91.7111 91.7596 91.0482 91.9833C90.3936 92.1987 89.8633 92.526 89.4573 92.9652C89.0596 93.3961 88.8607 93.9844 88.8607 94.7301C88.8607 95.7493 89.2377 96.5199 89.9917 97.0419C90.7541 97.5556 91.7194 97.8125 92.8877 97.8125ZM114.847 80.9091V83.3949H104.953V80.9091H114.847ZM107.837 76.3352H110.77V94.5312C110.77 95.3598 110.89 95.9813 111.13 96.3956C111.379 96.8016 111.694 97.075 112.075 97.2159C112.464 97.3485 112.875 97.4148 113.305 97.4148C113.629 97.4148 113.894 97.3982 114.101 97.3651C114.308 97.3236 114.474 97.2905 114.598 97.2656L115.195 99.9006C114.996 99.9751 114.718 100.05 114.362 100.124C114.006 100.207 113.554 100.249 113.007 100.249C112.179 100.249 111.366 100.07 110.571 99.7141C109.784 99.3578 109.129 98.8151 108.607 98.0859C108.094 97.3568 107.837 96.437 107.837 95.3267V76.3352ZM122.602 88.5156V100H119.669V74.5455H122.602V83.892H122.851C123.298 82.906 123.969 82.123 124.864 81.543C125.768 80.9547 126.969 80.6605 128.469 80.6605C129.77 80.6605 130.909 80.9215 131.887 81.4435C132.864 81.9573 133.623 82.7486 134.161 83.8175C134.708 84.8781 134.982 86.2287 134.982 87.8693V100H132.048V88.0682C132.048 86.5518 131.655 85.3794 130.868 84.5508C130.089 83.7139 129.007 83.2955 127.624 83.2955C126.662 83.2955 125.801 83.4985 125.038 83.9045C124.284 84.3105 123.688 84.9029 123.249 85.6818C122.818 86.4607 122.602 87.4053 122.602 88.5156Z" fill="#FFD100"/>
<path d="M132.313 55.432C132.014 55.5128 131.837 55.8197 131.917 56.1188C131.998 56.4179 132.305 56.595 132.604 56.5148L134.305 56.0578C134.454 56.0177 134.573 55.9208 134.645 55.7963C134.717 55.6725 134.741 55.5206 134.701 55.371C134.62 55.0719 134.313 54.8948 134.014 54.975L132.313 55.432Z" fill="#FFD100"/>
<path d="M135.881 57.0018C135.613 56.8475 135.27 56.939 135.115 57.2076L134.236 58.7337C134.082 59.0017 134.174 59.3445 134.442 59.4994C134.71 59.6543 135.053 59.5622 135.208 59.2942L136.087 57.7681C136.242 57.4989 136.149 57.1568 135.881 57.0018Z" fill="#FFD100"/>
<path d="M137.266 58.0625L137.723 59.7638C137.803 60.0624 138.111 60.24 138.41 60.1599C138.559 60.1198 138.678 60.0229 138.75 59.8984C138.822 59.774 138.846 59.6227 138.806 59.4731L138.349 57.7724C138.269 57.4733 137.961 57.2962 137.662 57.3763C137.363 57.4565 137.186 57.7634 137.266 58.0625Z" fill="#FFD100"/>
<path d="M132.408 51.9295C132.253 52.1975 132.346 52.5403 132.614 52.6952L134.14 53.5752C134.408 53.7295 134.75 53.6374 134.905 53.3694C135.06 53.1008 134.968 52.7586 134.7 52.6037L133.174 51.7243C132.905 51.5693 132.562 51.6609 132.408 51.9295Z" fill="#FFD100"/>
<path d="M136.598 51.8917C136.67 51.7673 136.695 51.616 136.655 51.4664L136.198 49.7656C136.117 49.4665 135.81 49.2895 135.511 49.3696C135.212 49.4498 135.035 49.7573 135.115 50.0564L135.572 51.7577C135.652 52.0568 135.959 52.2339 136.259 52.1538C136.408 52.1125 136.527 52.0156 136.598 51.8917Z" fill="#FFD100"/>
<path d="M139.786 53.4932C139.637 53.5333 139.518 53.6302 139.446 53.7546C139.374 53.8784 139.35 54.0304 139.39 54.1799C139.471 54.479 139.778 54.6561 140.077 54.576L141.778 54.1189C142.077 54.0382 142.254 53.7313 142.174 53.4321C142.093 53.133 141.786 52.956 141.487 53.0361L139.786 53.4932Z" fill="#FFD100"/>
<path d="M138.885 50.258L138.005 51.7841C137.85 52.0527 137.943 52.3949 138.211 52.5498C138.479 52.7042 138.822 52.6126 138.976 52.344L139.856 50.818C140.01 50.55 139.918 50.2072 139.65 50.0522C139.382 49.8979 139.039 49.99 138.885 50.258Z" fill="#FFD100"/>
<path d="M139.187 56.1823C139.032 56.4509 139.124 56.7931 139.393 56.948L140.919 57.828C141.187 57.9823 141.53 57.8908 141.684 57.6222C141.839 57.3542 141.747 57.0114 141.479 56.8571L139.953 55.9771C139.684 55.8221 139.341 55.9143 139.187 56.1823Z" fill="#FFD100"/>
<path d="M26.4278 152.942C26.1286 153.023 25.9516 153.33 26.0317 153.629C26.1119 153.928 26.4194 154.105 26.7185 154.025L28.4192 153.568C28.5688 153.528 28.6878 153.431 28.7596 153.307C28.8314 153.182 28.8553 153.031 28.8153 152.881C28.7351 152.582 28.4276 152.405 28.1285 152.485L26.4278 152.942Z" fill="#FFD100"/>
<path d="M29.9956 154.512C29.7276 154.358 29.3848 154.449 29.2298 154.718L28.3504 156.244C28.1961 156.512 28.2882 156.855 28.5562 157.009C28.8248 157.164 29.1676 157.072 29.322 156.804L30.2014 155.278C30.3563 155.009 30.2636 154.667 29.9956 154.512Z" fill="#FFD100"/>
<path d="M31.3805 155.573L31.8375 157.274C31.9177 157.573 32.2252 157.75 32.5243 157.67C32.6738 157.629 32.7929 157.533 32.8647 157.409C32.9365 157.285 32.9604 157.133 32.9203 156.983L32.4633 155.282C32.3831 154.983 32.0756 154.806 31.7765 154.886C31.478 154.967 31.3009 155.274 31.3805 155.573Z" fill="#FFD100"/>
<path d="M26.5223 149.44C26.3679 149.708 26.46 150.051 26.7281 150.206L28.2541 151.086C28.5221 151.24 28.8649 151.148 29.0198 150.88C29.1748 150.611 29.0821 150.269 28.8141 150.114L27.288 149.234C27.0194 149.08 26.6766 149.171 26.5223 149.44Z" fill="#FFD100"/>
<path d="M30.7128 149.402C30.7846 149.278 30.8091 149.126 30.769 148.977L30.312 147.276C30.2318 146.977 29.9243 146.8 29.6252 146.88C29.3267 146.96 29.149 147.268 29.2292 147.567L29.6862 149.268C29.7664 149.567 30.0739 149.744 30.373 149.664C30.5226 149.623 30.6416 149.526 30.7128 149.402Z" fill="#FFD100"/>
<path d="M33.9007 151.004C33.7512 151.044 33.6321 151.141 33.5609 151.265C33.4892 151.389 33.4652 151.541 33.5053 151.69C33.5861 151.989 33.893 152.167 34.1921 152.086L35.8928 151.63C36.1919 151.549 36.369 151.242 36.2888 150.943C36.2087 150.644 35.9012 150.467 35.6021 150.547L33.9007 151.004Z" fill="#FFD100"/>
<path d="M32.9987 147.768L32.1193 149.294C31.9643 149.563 32.0571 149.905 32.3251 150.06C32.5931 150.214 32.9358 150.123 33.0902 149.854L33.9696 148.328C34.1239 148.06 34.0318 147.717 33.7638 147.563C33.4964 147.408 33.1536 147.5 32.9987 147.768Z" fill="#FFD100"/>
<path d="M33.3013 153.693C33.1463 153.961 33.2391 154.303 33.5071 154.458L35.0331 155.338C35.3011 155.493 35.6439 155.401 35.7989 155.133C35.9532 154.865 35.8611 154.522 35.5931 154.367L34.067 153.487C33.7984 153.332 33.4556 153.425 33.3013 153.693Z" fill="#FFD100"/>
<path d="M88.2548 2.74106C89.0117 2.74106 89.6253 2.12745 89.6253 1.37053C89.6253 0.613606 89.0117 0 88.2548 0C87.4979 0 86.8843 0.613606 86.8843 1.37053C86.8843 2.12745 87.4979 2.74106 88.2548 2.74106Z" fill="url(#paint0_linear_7_213)"/>
<path d="M88.2548 9.45847C89.0117 9.45847 89.6253 8.84486 89.6253 8.08794C89.6253 7.33101 89.0117 6.71741 88.2548 6.71741C87.4979 6.71741 86.8843 7.33101 86.8843 8.08794C86.8843 8.84486 87.4979 9.45847 88.2548 9.45847Z" fill="url(#paint1_linear_7_213)"/>
<path d="M88.2548 13.4349C87.4981 13.4349 86.8843 14.0487 86.8843 14.8055C86.8843 15.5622 87.4981 16.176 88.2548 16.176C89.0116 16.176 89.6253 15.5622 89.6253 14.8055C89.6253 14.0481 89.0116 13.4349 88.2548 13.4349Z" fill="url(#paint2_linear_7_213)"/>
<path d="M88.2548 20.1517C87.4981 20.1517 86.8843 20.7655 86.8843 21.5223C86.8843 22.279 87.4981 22.8928 88.2548 22.8928C89.0116 22.8928 89.6253 22.279 89.6253 21.5223C89.6253 20.7655 89.0116 20.1517 88.2548 20.1517Z" fill="url(#paint3_linear_7_213)"/>
<path d="M88.2548 29.6102C89.0117 29.6102 89.6253 28.9966 89.6253 28.2397C89.6253 27.4827 89.0117 26.8691 88.2548 26.8691C87.4979 26.8691 86.8843 27.4827 86.8843 28.2397C86.8843 28.9966 87.4979 29.6102 88.2548 29.6102Z" fill="url(#paint4_linear_7_213)"/>
<path d="M88.2548 36.3277C89.0117 36.3277 89.6253 35.7141 89.6253 34.9572C89.6253 34.2003 89.0117 33.5867 88.2548 33.5867C87.4979 33.5867 86.8843 34.2003 86.8843 34.9572C86.8843 35.7141 87.4979 36.3277 88.2548 36.3277Z" fill="url(#paint5_linear_7_213)"/>
<path d="M88.2548 40.3041C87.4981 40.3041 86.8843 40.9179 86.8843 41.6746C86.8843 42.4314 87.4981 43.0451 88.2548 43.0451C89.0116 43.0451 89.6253 42.4314 89.6253 41.6746C89.6253 40.9173 89.0116 40.3041 88.2548 40.3041Z" fill="url(#paint6_linear_7_213)"/>
<path d="M88.2548 47.021C87.4981 47.021 86.8843 47.6348 86.8843 48.3915C86.8843 49.1483 87.4981 49.7621 88.2548 49.7621C89.0116 49.7621 89.6253 49.1483 89.6253 48.3915C89.6253 47.6348 89.0116 47.021 88.2548 47.021Z" fill="url(#paint7_linear_7_213)"/>
<path d="M88.2548 56.4795C89.0117 56.4795 89.6253 55.8659 89.6253 55.1089C89.6253 54.352 89.0117 53.7384 88.2548 53.7384C87.4979 53.7384 86.8843 54.352 86.8843 55.1089C86.8843 55.8659 87.4979 56.4795 88.2548 56.4795Z" fill="url(#paint8_linear_7_213)"/>
<path d="M88.2548 63.197C89.0117 63.197 89.6253 62.5834 89.6253 61.8265C89.6253 61.0695 89.0117 60.4559 88.2548 60.4559C87.4979 60.4559 86.8843 61.0695 86.8843 61.8265C86.8843 62.5834 87.4979 63.197 88.2548 63.197Z" fill="url(#paint9_linear_7_213)"/>
<path d="M81.7575 9.45847C82.5144 9.45847 83.128 8.84486 83.128 8.08794C83.128 7.33101 82.5144 6.71741 81.7575 6.71741C81.0006 6.71741 80.387 7.33101 80.387 8.08794C80.387 8.84486 81.0006 9.45847 81.7575 9.45847Z" fill="url(#paint10_linear_7_213)"/>
<path d="M81.7575 13.4349C81.0007 13.4349 80.387 14.0487 80.387 14.8055C80.387 15.5622 81.0007 16.176 81.7575 16.176C82.5142 16.176 83.128 15.5622 83.128 14.8055C83.128 14.0481 82.5142 13.4349 81.7575 13.4349Z" fill="url(#paint11_linear_7_213)"/>
<path d="M81.7575 20.1517C81.0007 20.1517 80.387 20.7655 80.387 21.5223C80.387 22.279 81.0007 22.8928 81.7575 22.8928C82.5142 22.8928 83.128 22.279 83.128 21.5223C83.128 20.7655 82.5142 20.1517 81.7575 20.1517Z" fill="url(#paint12_linear_7_213)"/>
<path d="M81.7575 29.6102C82.5144 29.6102 83.128 28.9966 83.128 28.2397C83.128 27.4827 82.5144 26.8691 81.7575 26.8691C81.0006 26.8691 80.387 27.4827 80.387 28.2397C80.387 28.9966 81.0006 29.6102 81.7575 29.6102Z" fill="url(#paint13_linear_7_213)"/>
<path d="M81.7575 36.3277C82.5144 36.3277 83.128 35.7141 83.128 34.9572C83.128 34.2003 82.5144 33.5867 81.7575 33.5867C81.0006 33.5867 80.387 34.2003 80.387 34.9572C80.387 35.7141 81.0006 36.3277 81.7575 36.3277Z" fill="url(#paint14_linear_7_213)"/>
<path d="M81.7575 40.3041C81.0007 40.3041 80.387 40.9179 80.387 41.6746C80.387 42.4314 81.0007 43.0451 81.7575 43.0451C82.5142 43.0451 83.128 42.4314 83.128 41.6746C83.128 40.9173 82.5142 40.3041 81.7575 40.3041Z" fill="url(#paint15_linear_7_213)"/>
<path d="M81.7575 47.021C81.0007 47.021 80.387 47.6348 80.387 48.3915C80.387 49.1483 81.0007 49.7621 81.7575 49.7621C82.5142 49.7621 83.128 49.1483 83.128 48.3915C83.128 47.6348 82.5142 47.021 81.7575 47.021Z" fill="url(#paint16_linear_7_213)"/>
<path d="M81.7575 56.4795C82.5144 56.4795 83.128 55.8659 83.128 55.1089C83.128 54.352 82.5144 53.7384 81.7575 53.7384C81.0006 53.7384 80.387 54.352 80.387 55.1089C80.387 55.8659 81.0006 56.4795 81.7575 56.4795Z" fill="url(#paint17_linear_7_213)"/>
<path d="M81.7575 63.197C82.5144 63.197 83.128 62.5834 83.128 61.8265C83.128 61.0695 82.5144 60.4559 81.7575 60.4559C81.0006 60.4559 80.387 61.0695 80.387 61.8265C80.387 62.5834 81.0006 63.197 81.7575 63.197Z" fill="url(#paint18_linear_7_213)"/>
<path d="M75.2602 13.4349C74.5034 13.4349 73.8896 14.0487 73.8896 14.8055C73.8896 15.5622 74.5034 16.176 75.2602 16.176C76.0169 16.176 76.6307 15.5622 76.6307 14.8055C76.6307 14.0481 76.0169 13.4349 75.2602 13.4349Z" fill="url(#paint19_linear_7_213)"/>
<path d="M75.2602 20.1517C74.5034 20.1517 73.8896 20.7655 73.8896 21.5223C73.8896 22.279 74.5034 22.8928 75.2602 22.8928C76.0169 22.8928 76.6307 22.279 76.6307 21.5223C76.6307 20.7655 76.0169 20.1517 75.2602 20.1517Z" fill="url(#paint20_linear_7_213)"/>
<path d="M75.2602 26.8691C74.5034 26.8691 73.8896 27.4829 73.8896 28.2397C73.8896 28.9964 74.5034 29.6102 75.2602 29.6102C76.0169 29.6102 76.6307 28.9964 76.6307 28.2397C76.6307 27.4829 76.0169 26.8691 75.2602 26.8691Z" fill="url(#paint21_linear_7_213)"/>
<path d="M75.2602 33.5867C74.5034 33.5867 73.8896 34.2004 73.8896 34.9572C73.8896 35.714 74.5034 36.3277 75.2602 36.3277C76.0169 36.3277 76.6307 35.714 76.6307 34.9572C76.6307 34.2004 76.0169 33.5867 75.2602 33.5867Z" fill="url(#paint22_linear_7_213)"/>
<path d="M75.2602 40.3041C74.5034 40.3041 73.8896 40.9179 73.8896 41.6746C73.8896 42.4314 74.5034 43.0451 75.2602 43.0451C76.0169 43.0451 76.6307 42.4314 76.6307 41.6746C76.6307 40.9173 76.0169 40.3041 75.2602 40.3041Z" fill="url(#paint23_linear_7_213)"/>
<path d="M75.2602 47.021C74.5034 47.021 73.8896 47.6348 73.8896 48.3915C73.8896 49.1483 74.5034 49.7621 75.2602 49.7621C76.0169 49.7621 76.6307 49.1483 76.6307 48.3915C76.6307 47.6348 76.0169 47.021 75.2602 47.021Z" fill="url(#paint24_linear_7_213)"/>
<path d="M75.2602 53.7384C74.5034 53.7384 73.8896 54.3522 73.8896 55.1089C73.8896 55.8657 74.5034 56.4795 75.2602 56.4795C76.0169 56.4795 76.6307 55.8657 76.6307 55.1089C76.6307 54.3522 76.0169 53.7384 75.2602 53.7384Z" fill="url(#paint25_linear_7_213)"/>
<path d="M75.2602 60.4559C74.5034 60.4559 73.8896 61.0697 73.8896 61.8265C73.8896 62.5832 74.5034 63.197 75.2602 63.197C76.0169 63.197 76.6307 62.5832 76.6307 61.8265C76.6307 61.0697 76.0169 60.4559 75.2602 60.4559Z" fill="url(#paint26_linear_7_213)"/>
<path d="M68.7629 20.1517C68.0061 20.1517 67.3923 20.7655 67.3923 21.5223C67.3923 22.279 68.0061 22.8928 68.7629 22.8928C69.5196 22.8928 70.1334 22.279 70.1334 21.5223C70.1334 20.7655 69.5196 20.1517 68.7629 20.1517Z" fill="url(#paint27_linear_7_213)"/>
<path d="M68.7629 29.6102C69.5198 29.6102 70.1334 28.9966 70.1334 28.2397C70.1334 27.4827 69.5198 26.8691 68.7629 26.8691C68.0059 26.8691 67.3923 27.4827 67.3923 28.2397C67.3923 28.9966 68.0059 29.6102 68.7629 29.6102Z" fill="url(#paint28_linear_7_213)"/>
<path d="M68.7629 36.3277C69.5198 36.3277 70.1334 35.7141 70.1334 34.9572C70.1334 34.2003 69.5198 33.5867 68.7629 33.5867C68.0059 33.5867 67.3923 34.2003 67.3923 34.9572C67.3923 35.7141 68.0059 36.3277 68.7629 36.3277Z" fill="url(#paint29_linear_7_213)"/>
<path d="M68.7629 40.3041C68.0061 40.3041 67.3923 40.9179 67.3923 41.6746C67.3923 42.4314 68.0061 43.0451 68.7629 43.0451C69.5196 43.0451 70.1334 42.4314 70.1334 41.6746C70.1334 40.9173 69.5196 40.3041 68.7629 40.3041Z" fill="url(#paint30_linear_7_213)"/>
<path d="M68.7629 47.021C68.0061 47.021 67.3923 47.6348 67.3923 48.3915C67.3923 49.1483 68.0061 49.7621 68.7629 49.7621C69.5196 49.7621 70.1334 49.1483 70.1334 48.3915C70.1334 47.6348 69.5196 47.021 68.7629 47.021Z" fill="url(#paint31_linear_7_213)"/>
<path d="M68.7629 56.4795C69.5198 56.4795 70.1334 55.8659 70.1334 55.1089C70.1334 54.352 69.5198 53.7384 68.7629 53.7384C68.0059 53.7384 67.3923 54.352 67.3923 55.1089C67.3923 55.8659 68.0059 56.4795 68.7629 56.4795Z" fill="url(#paint32_linear_7_213)"/>
<path d="M68.7629 63.197C69.5198 63.197 70.1334 62.5834 70.1334 61.8265C70.1334 61.0695 69.5198 60.4559 68.7629 60.4559C68.0059 60.4559 67.3923 61.0695 67.3923 61.8265C67.3923 62.5834 68.0059 63.197 68.7629 63.197Z" fill="url(#paint33_linear_7_213)"/>
<path d="M62.2656 29.6102C63.0225 29.6102 63.6361 28.9966 63.6361 28.2397C63.6361 27.4827 63.0225 26.8691 62.2656 26.8691C61.5086 26.8691 60.895 27.4827 60.895 28.2397C60.895 28.9966 61.5086 29.6102 62.2656 29.6102Z" fill="url(#paint34_linear_7_213)"/>
<path d="M62.2656 36.3277C63.0225 36.3277 63.6361 35.7141 63.6361 34.9572C63.6361 34.2003 63.0225 33.5867 62.2656 33.5867C61.5086 33.5867 60.895 34.2003 60.895 34.9572C60.895 35.7141 61.5086 36.3277 62.2656 36.3277Z" fill="url(#paint35_linear_7_213)"/>
<path d="M62.2656 40.3041C61.5088 40.3041 60.895 40.9179 60.895 41.6746C60.895 42.4314 61.5088 43.0451 62.2656 43.0451C63.0223 43.0451 63.6361 42.4314 63.6361 41.6746C63.6361 40.9173 63.0223 40.3041 62.2656 40.3041Z" fill="url(#paint36_linear_7_213)"/>
<path d="M62.2656 47.021C61.5088 47.021 60.895 47.6348 60.895 48.3915C60.895 49.1483 61.5088 49.7621 62.2656 49.7621C63.0223 49.7621 63.6361 49.1483 63.6361 48.3915C63.6361 47.6348 63.0223 47.021 62.2656 47.021Z" fill="url(#paint37_linear_7_213)"/>
<path d="M62.2656 56.4795C63.0225 56.4795 63.6361 55.8659 63.6361 55.1089C63.6361 54.352 63.0225 53.7384 62.2656 53.7384C61.5086 53.7384 60.895 54.352 60.895 55.1089C60.895 55.8659 61.5086 56.4795 62.2656 56.4795Z" fill="url(#paint38_linear_7_213)"/>
<path d="M62.2656 63.197C63.0225 63.197 63.6361 62.5834 63.6361 61.8265C63.6361 61.0695 63.0225 60.4559 62.2656 60.4559C61.5086 60.4559 60.895 61.0695 60.895 61.8265C60.895 62.5834 61.5086 63.197 62.2656 63.197Z" fill="url(#paint39_linear_7_213)"/>
<path d="M55.7682 26.8691C55.0115 26.8691 54.3977 27.4829 54.3977 28.2397C54.3977 28.9964 55.0115 29.6102 55.7682 29.6102C56.525 29.6102 57.1388 28.9964 57.1388 28.2397C57.1388 27.4829 56.525 26.8691 55.7682 26.8691Z" fill="url(#paint40_linear_7_213)"/>
<path d="M55.7682 33.5867C55.0115 33.5867 54.3977 34.2004 54.3977 34.9572C54.3977 35.714 55.0115 36.3277 55.7682 36.3277C56.525 36.3277 57.1388 35.714 57.1388 34.9572C57.1388 34.2004 56.525 33.5867 55.7682 33.5867Z" fill="url(#paint41_linear_7_213)"/>
<path d="M55.7682 40.3041C55.0115 40.3041 54.3977 40.9179 54.3977 41.6746C54.3977 42.4314 55.0115 43.0451 55.7682 43.0451C56.525 43.0451 57.1388 42.4314 57.1388 41.6746C57.1388 40.9173 56.525 40.3041 55.7682 40.3041Z" fill="url(#paint42_linear_7_213)"/>
<path d="M55.7682 47.021C55.0115 47.021 54.3977 47.6348 54.3977 48.3915C54.3977 49.1483 55.0115 49.7621 55.7682 49.7621C56.525 49.7621 57.1388 49.1483 57.1388 48.3915C57.1388 47.6348 56.525 47.021 55.7682 47.021Z" fill="url(#paint43_linear_7_213)"/>
<path d="M55.7682 53.7384C55.0115 53.7384 54.3977 54.3522 54.3977 55.1089C54.3977 55.8657 55.0115 56.4795 55.7682 56.4795C56.525 56.4795 57.1388 55.8657 57.1388 55.1089C57.1388 54.3522 56.525 53.7384 55.7682 53.7384Z" fill="url(#paint44_linear_7_213)"/>
<path d="M55.7682 60.4559C55.0115 60.4559 54.3977 61.0697 54.3977 61.8265C54.3977 62.5832 55.0115 63.197 55.7682 63.197C56.525 63.197 57.1388 62.5832 57.1388 61.8265C57.1388 61.0697 56.525 60.4559 55.7682 60.4559Z" fill="url(#paint45_linear_7_213)"/>
<path d="M49.2709 29.6102C50.0278 29.6102 50.6415 28.9966 50.6415 28.2397C50.6415 27.4827 50.0278 26.8691 49.2709 26.8691C48.514 26.8691 47.9004 27.4827 47.9004 28.2397C47.9004 28.9966 48.514 29.6102 49.2709 29.6102Z" fill="url(#paint46_linear_7_213)"/>
<path d="M49.2709 36.3277C50.0278 36.3277 50.6415 35.7141 50.6415 34.9572C50.6415 34.2003 50.0278 33.5867 49.2709 33.5867C48.514 33.5867 47.9004 34.2003 47.9004 34.9572C47.9004 35.7141 48.514 36.3277 49.2709 36.3277Z" fill="url(#paint47_linear_7_213)"/>
<path d="M49.2709 40.3041C48.5142 40.3041 47.9004 40.9179 47.9004 41.6746C47.9004 42.4314 48.5142 43.0451 49.2709 43.0451C50.0277 43.0451 50.6415 42.4314 50.6415 41.6746C50.6415 40.9173 50.0277 40.3041 49.2709 40.3041Z" fill="url(#paint48_linear_7_213)"/>
<path d="M49.2709 47.021C48.5142 47.021 47.9004 47.6348 47.9004 48.3915C47.9004 49.1483 48.5142 49.7621 49.2709 49.7621C50.0277 49.7621 50.6415 49.1483 50.6415 48.3915C50.6415 47.6348 50.0277 47.021 49.2709 47.021Z" fill="url(#paint49_linear_7_213)"/>
<path d="M49.2709 56.4795C50.0278 56.4795 50.6415 55.8659 50.6415 55.1089C50.6415 54.352 50.0278 53.7384 49.2709 53.7384C48.514 53.7384 47.9004 54.352 47.9004 55.1089C47.9004 55.8659 48.514 56.4795 49.2709 56.4795Z" fill="url(#paint50_linear_7_213)"/>
<path d="M49.2709 63.197C50.0278 63.197 50.6415 62.5834 50.6415 61.8265C50.6415 61.0695 50.0278 60.4559 49.2709 60.4559C48.514 60.4559 47.9004 61.0695 47.9004 61.8265C47.9004 62.5834 48.514 63.197 49.2709 63.197Z" fill="url(#paint51_linear_7_213)"/>
<path d="M98.7465 182.573C99.5034 182.573 100.117 181.959 100.117 181.203C100.117 180.446 99.5034 179.832 98.7465 179.832C97.9896 179.832 97.376 180.446 97.376 181.203C97.376 181.959 97.9896 182.573 98.7465 182.573Z" fill="url(#paint52_linear_7_213)"/>
<path d="M105.464 179.832C104.707 179.832 104.093 180.446 104.093 181.203C104.093 181.959 104.707 182.573 105.464 182.573C106.221 182.573 106.834 181.959 106.834 181.203C106.834 180.446 106.221 179.832 105.464 179.832Z" fill="url(#paint53_linear_7_213)"/>
<path d="M112.181 179.832C111.424 179.832 110.81 180.446 110.81 181.203C110.81 181.959 111.424 182.573 112.181 182.573C112.938 182.573 113.551 181.959 113.551 181.203C113.551 180.446 112.938 179.832 112.181 179.832Z" fill="url(#paint54_linear_7_213)"/>
<path d="M118.898 182.573C119.655 182.573 120.269 181.959 120.269 181.203C120.269 180.446 119.655 179.832 118.898 179.832C118.141 179.832 117.528 180.446 117.528 181.203C117.528 181.959 118.141 182.573 118.898 182.573Z" fill="url(#paint55_linear_7_213)"/>
<path d="M125.616 182.573C126.373 182.573 126.986 181.959 126.986 181.203C126.986 180.446 126.373 179.832 125.616 179.832C124.859 179.832 124.245 180.446 124.245 181.203C124.245 181.959 124.859 182.573 125.616 182.573Z" fill="url(#paint56_linear_7_213)"/>
<path d="M132.333 182.573C133.089 182.573 133.703 181.959 133.703 181.203C133.703 180.446 133.089 179.832 132.333 179.832C131.576 179.832 130.962 180.446 130.962 181.203C130.962 181.959 131.576 182.573 132.333 182.573Z" fill="url(#paint57_linear_7_213)"/>
<path d="M139.05 179.832C138.293 179.832 137.679 180.446 137.679 181.203C137.679 181.959 138.293 182.573 139.05 182.573C139.807 182.573 140.421 181.959 140.421 181.203C140.421 180.446 139.807 179.832 139.05 179.832Z" fill="url(#paint58_linear_7_213)"/>
<path d="M145.767 182.573C146.524 182.573 147.138 181.959 147.138 181.203C147.138 180.446 146.524 179.832 145.767 179.832C145.011 179.832 144.397 180.446 144.397 181.203C144.397 181.959 145.011 182.573 145.767 182.573Z" fill="url(#paint59_linear_7_213)"/>
<path d="M152.485 182.573C153.242 182.573 153.855 181.959 153.855 181.203C153.855 180.446 153.242 179.832 152.485 179.832C151.728 179.832 151.114 180.446 151.114 181.203C151.114 181.959 151.728 182.573 152.485 182.573Z" fill="url(#paint60_linear_7_213)"/>
<path d="M159.202 182.573C159.959 182.573 160.572 181.959 160.572 181.203C160.572 180.446 159.959 179.832 159.202 179.832C158.445 179.832 157.831 180.446 157.831 181.203C157.831 181.959 158.445 182.573 159.202 182.573Z" fill="url(#paint61_linear_7_213)"/>
<path d="M105.464 186.329C104.707 186.329 104.093 186.943 104.093 187.7C104.093 188.457 104.707 189.07 105.464 189.07C106.221 189.07 106.834 188.457 106.834 187.7C106.834 186.943 106.221 186.329 105.464 186.329Z" fill="url(#paint62_linear_7_213)"/>
<path d="M112.181 186.329C111.424 186.329 110.81 186.943 110.81 187.7C110.81 188.457 111.424 189.07 112.181 189.07C112.938 189.07 113.551 188.457 113.551 187.7C113.551 186.943 112.938 186.329 112.181 186.329Z" fill="url(#paint63_linear_7_213)"/>
<path d="M118.898 186.329C118.142 186.329 117.528 186.943 117.528 187.7C117.528 188.457 118.142 189.07 118.898 189.07C119.655 189.07 120.269 188.457 120.269 187.7C120.269 186.943 119.655 186.329 118.898 186.329Z" fill="url(#paint64_linear_7_213)"/>
<path d="M125.616 186.329C124.859 186.329 124.245 186.943 124.245 187.7C124.245 188.457 124.859 189.07 125.616 189.07C126.373 189.07 126.986 188.457 126.986 187.7C126.986 186.943 126.373 186.329 125.616 186.329Z" fill="url(#paint65_linear_7_213)"/>
<path d="M132.333 186.329C131.576 186.329 130.962 186.943 130.962 187.7C130.962 188.457 131.576 189.07 132.333 189.07C133.089 189.07 133.703 188.457 133.703 187.7C133.703 186.943 133.09 186.329 132.333 186.329Z" fill="url(#paint66_linear_7_213)"/>
<path d="M139.05 186.329C138.293 186.329 137.679 186.943 137.679 187.7C137.679 188.457 138.293 189.07 139.05 189.07C139.807 189.07 140.421 188.457 140.421 187.7C140.421 186.943 139.807 186.329 139.05 186.329Z" fill="url(#paint67_linear_7_213)"/>
<path d="M145.767 186.329C145.011 186.329 144.397 186.943 144.397 187.7C144.397 188.457 145.011 189.07 145.767 189.07C146.524 189.07 147.138 188.457 147.138 187.7C147.138 186.943 146.524 186.329 145.767 186.329Z" fill="url(#paint68_linear_7_213)"/>
<path d="M152.485 186.329C151.728 186.329 151.114 186.943 151.114 187.7C151.114 188.457 151.728 189.07 152.485 189.07C153.242 189.07 153.855 188.457 153.855 187.7C153.855 186.943 153.242 186.329 152.485 186.329Z" fill="url(#paint69_linear_7_213)"/>
<path d="M159.202 186.329C158.445 186.329 157.831 186.943 157.831 187.7C157.831 188.457 158.445 189.07 159.202 189.07C159.959 189.07 160.572 188.457 160.572 187.7C160.572 186.943 159.959 186.329 159.202 186.329Z" fill="url(#paint70_linear_7_213)"/>
<path d="M118.898 195.568C119.655 195.568 120.269 194.954 120.269 194.197C120.269 193.44 119.655 192.827 118.898 192.827C118.141 192.827 117.528 193.44 117.528 194.197C117.528 194.954 118.141 195.568 118.898 195.568Z" fill="url(#paint71_linear_7_213)"/>
<path d="M125.616 195.568C126.373 195.568 126.986 194.954 126.986 194.197C126.986 193.44 126.373 192.827 125.616 192.827C124.859 192.827 124.245 193.44 124.245 194.197C124.245 194.954 124.859 195.568 125.616 195.568Z" fill="url(#paint72_linear_7_213)"/>
<path d="M132.333 195.568C133.089 195.568 133.703 194.954 133.703 194.197C133.703 193.44 133.089 192.827 132.333 192.827C131.576 192.827 130.962 193.44 130.962 194.197C130.962 194.954 131.576 195.568 132.333 195.568Z" fill="url(#paint73_linear_7_213)"/>
<path d="M139.05 192.827C138.293 192.827 137.679 193.44 137.679 194.197C137.679 194.954 138.293 195.568 139.05 195.568C139.807 195.568 140.421 194.954 140.421 194.197C140.421 193.44 139.807 192.827 139.05 192.827Z" fill="url(#paint74_linear_7_213)"/>
<path d="M145.767 195.568C146.524 195.568 147.138 194.954 147.138 194.197C147.138 193.44 146.524 192.827 145.767 192.827C145.011 192.827 144.397 193.44 144.397 194.197C144.397 194.954 145.011 195.568 145.767 195.568Z" fill="url(#paint75_linear_7_213)"/>
<path d="M152.485 195.568C153.242 195.568 153.855 194.954 153.855 194.197C153.855 193.44 153.242 192.827 152.485 192.827C151.728 192.827 151.114 193.44 151.114 194.197C151.114 194.954 151.728 195.568 152.485 195.568Z" fill="url(#paint76_linear_7_213)"/>
<path d="M159.202 192.827C158.445 192.827 157.831 193.44 157.831 194.197C157.831 194.954 158.445 195.568 159.202 195.568C159.959 195.568 160.572 194.954 160.572 194.197C160.572 193.44 159.959 192.827 159.202 192.827Z" fill="url(#paint77_linear_7_213)"/>
<path d="M118.898 202.065C119.655 202.065 120.269 201.451 120.269 200.694C120.269 199.938 119.655 199.324 118.898 199.324C118.141 199.324 117.528 199.938 117.528 200.694C117.528 201.451 118.141 202.065 118.898 202.065Z" fill="url(#paint78_linear_7_213)"/>
<path d="M125.616 202.065C126.373 202.065 126.986 201.451 126.986 200.694C126.986 199.938 126.373 199.324 125.616 199.324C124.859 199.324 124.245 199.938 124.245 200.694C124.245 201.451 124.859 202.065 125.616 202.065Z" fill="url(#paint79_linear_7_213)"/>
<path d="M132.333 202.065C133.089 202.065 133.703 201.451 133.703 200.694C133.703 199.938 133.089 199.324 132.333 199.324C131.576 199.324 130.962 199.938 130.962 200.694C130.962 201.451 131.576 202.065 132.333 202.065Z" fill="url(#paint80_linear_7_213)"/>
<path d="M139.05 199.324C138.293 199.324 137.679 199.938 137.679 200.694C137.679 201.451 138.293 202.065 139.05 202.065C139.807 202.065 140.421 201.451 140.421 200.694C140.421 199.938 139.807 199.324 139.05 199.324Z" fill="url(#paint81_linear_7_213)"/>
<path d="M145.767 202.065C146.524 202.065 147.138 201.451 147.138 200.694C147.138 199.938 146.524 199.324 145.767 199.324C145.011 199.324 144.397 199.938 144.397 200.694C144.397 201.451 145.011 202.065 145.767 202.065Z" fill="url(#paint82_linear_7_213)"/>
<path d="M152.485 202.065C153.242 202.065 153.855 201.451 153.855 200.694C153.855 199.938 153.242 199.324 152.485 199.324C151.728 199.324 151.114 199.938 151.114 200.694C151.114 201.451 151.728 202.065 152.485 202.065Z" fill="url(#paint83_linear_7_213)"/>
<path d="M159.202 199.324C158.445 199.324 157.831 199.938 157.831 200.694C157.831 201.451 158.445 202.065 159.202 202.065C159.959 202.065 160.572 201.451 160.572 200.694C160.572 199.938 159.959 199.324 159.202 199.324Z" fill="url(#paint84_linear_7_213)"/>
<path d="M125.616 205.821C124.859 205.821 124.245 206.435 124.245 207.192C124.245 207.948 124.859 208.562 125.616 208.562C126.373 208.562 126.986 207.948 126.986 207.192C126.986 206.435 126.373 205.821 125.616 205.821Z" fill="url(#paint85_linear_7_213)"/>
<path d="M132.333 205.821C131.576 205.821 130.962 206.435 130.962 207.192C130.962 207.948 131.576 208.562 132.333 208.562C133.089 208.562 133.703 207.948 133.703 207.192C133.703 206.435 133.09 205.821 132.333 205.821Z" fill="url(#paint86_linear_7_213)"/>
<path d="M139.05 205.821C138.293 205.821 137.679 206.435 137.679 207.192C137.679 207.948 138.293 208.562 139.05 208.562C139.807 208.562 140.421 207.948 140.421 207.192C140.421 206.435 139.807 205.821 139.05 205.821Z" fill="url(#paint87_linear_7_213)"/>
<path d="M145.767 205.821C145.011 205.821 144.397 206.435 144.397 207.192C144.397 207.948 145.011 208.562 145.767 208.562C146.524 208.562 147.138 207.948 147.138 207.192C147.138 206.435 146.524 205.821 145.767 205.821Z" fill="url(#paint88_linear_7_213)"/>
<path d="M152.485 205.821C151.728 205.821 151.114 206.435 151.114 207.192C151.114 207.948 151.728 208.562 152.485 208.562C153.242 208.562 153.855 207.948 153.855 207.192C153.855 206.435 153.242 205.821 152.485 205.821Z" fill="url(#paint89_linear_7_213)"/>
<path d="M159.202 205.821C158.445 205.821 157.831 206.435 157.831 207.192C157.831 207.948 158.445 208.562 159.202 208.562C159.959 208.562 160.572 207.948 160.572 207.192C160.572 206.435 159.959 205.821 159.202 205.821Z" fill="url(#paint90_linear_7_213)"/>
<path d="M125.616 215.06C126.373 215.06 126.986 214.446 126.986 213.689C126.986 212.932 126.373 212.319 125.616 212.319C124.859 212.319 124.245 212.932 124.245 213.689C124.245 214.446 124.859 215.06 125.616 215.06Z" fill="url(#paint91_linear_7_213)"/>
<path d="M132.333 215.06C133.089 215.06 133.703 214.446 133.703 213.689C133.703 212.932 133.089 212.319 132.333 212.319C131.576 212.319 130.962 212.932 130.962 213.689C130.962 214.446 131.576 215.06 132.333 215.06Z" fill="url(#paint92_linear_7_213)"/>
<path d="M139.05 212.319C138.293 212.319 137.679 212.932 137.679 213.689C137.679 214.446 138.293 215.06 139.05 215.06C139.807 215.06 140.421 214.446 140.421 213.689C140.421 212.932 139.807 212.319 139.05 212.319Z" fill="url(#paint93_linear_7_213)"/>
<path d="M145.767 215.06C146.524 215.06 147.138 214.446 147.138 213.689C147.138 212.932 146.524 212.319 145.767 212.319C145.011 212.319 144.397 212.932 144.397 213.689C144.397 214.446 145.011 215.06 145.767 215.06Z" fill="url(#paint94_linear_7_213)"/>
<path d="M152.485 215.06C153.242 215.06 153.855 214.446 153.855 213.689C153.855 212.932 153.242 212.319 152.485 212.319C151.728 212.319 151.114 212.932 151.114 213.689C151.114 214.446 151.728 215.06 152.485 215.06Z" fill="url(#paint95_linear_7_213)"/>
<path d="M159.202 212.319C158.445 212.319 157.831 212.932 157.831 213.689C157.831 214.446 158.445 215.06 159.202 215.06C159.959 215.06 160.572 214.446 160.572 213.689C160.572 212.932 159.959 212.319 159.202 212.319Z" fill="url(#paint96_linear_7_213)"/>
<path d="M125.616 221.557C126.373 221.557 126.986 220.943 126.986 220.186C126.986 219.429 126.373 218.816 125.616 218.816C124.859 218.816 124.245 219.429 124.245 220.186C124.245 220.943 124.859 221.557 125.616 221.557Z" fill="url(#paint97_linear_7_213)"/>
<path d="M132.333 221.557C133.089 221.557 133.703 220.943 133.703 220.186C133.703 219.429 133.089 218.816 132.333 218.816C131.576 218.816 130.962 219.429 130.962 220.186C130.962 220.943 131.576 221.557 132.333 221.557Z" fill="url(#paint98_linear_7_213)"/>
<path d="M139.05 218.816C138.293 218.816 137.679 219.43 137.679 220.186C137.679 220.943 138.293 221.557 139.05 221.557C139.807 221.557 140.421 220.943 140.421 220.186C140.421 219.43 139.807 218.816 139.05 218.816Z" fill="url(#paint99_linear_7_213)"/>
<path d="M145.767 221.557C146.524 221.557 147.138 220.943 147.138 220.186C147.138 219.429 146.524 218.816 145.767 218.816C145.011 218.816 144.397 219.429 144.397 220.186C144.397 220.943 145.011 221.557 145.767 221.557Z" fill="url(#paint100_linear_7_213)"/>
<path d="M152.485 221.557C153.242 221.557 153.855 220.943 153.855 220.186C153.855 219.429 153.242 218.816 152.485 218.816C151.728 218.816 151.114 219.429 151.114 220.186C151.114 220.943 151.728 221.557 152.485 221.557Z" fill="url(#paint101_linear_7_213)"/>
<path d="M159.202 218.816C158.445 218.816 157.831 219.43 157.831 220.186C157.831 220.943 158.445 221.557 159.202 221.557C159.959 221.557 160.572 220.943 160.572 220.186C160.572 219.43 159.959 218.816 159.202 218.816Z" fill="url(#paint102_linear_7_213)"/>
<path d="M201.154 144.418C197.227 135.644 186.68 131.905 178.037 136.453C170.627 140.352 167.225 149.34 170.192 157.17C172.078 162.149 176.025 165.66 180.647 167.176C183.201 168.014 185.325 169.816 186.423 172.27L188.058 175.921C189.834 179.89 194.414 181.94 198.462 180.351C202.784 178.655 204.768 173.718 202.893 169.529L201.165 165.67C200.103 163.299 200.031 160.569 201.107 158.204C203.031 153.982 203.2 148.986 201.154 144.418Z" fill="#FFD100" stroke="#6033FF" stroke-width="3" stroke-miterlimit="10"/>
<mask id="mask0_7_213" style="mask-type:luminance" maskUnits="userSpaceOnUse" x="169" y="134" width="35" height="47">
<path d="M201.154 144.418C197.227 135.644 186.68 131.905 178.037 136.453C170.627 140.352 167.225 149.34 170.192 157.17C172.078 162.149 176.025 165.66 180.647 167.176C183.201 168.014 185.325 169.816 186.423 172.27L188.058 175.921C189.834 179.89 194.414 181.94 198.462 180.351C202.784 178.655 204.768 173.718 202.893 169.529L201.165 165.67C200.103 163.299 200.031 160.569 201.107 158.204C203.031 153.982 203.2 148.986 201.154 144.418Z" fill="white"/>
</mask>
<g mask="url(#mask0_7_213)">
<path d="M200.81 164.896L186.068 171.495L187.535 174.771L202.277 168.172L200.81 164.896Z" fill="#6033FF"/>
<path d="M203.01 169.809L188.268 176.409L189.734 179.685L204.476 173.085L203.01 169.809Z" fill="#6033FF"/>
<path d="M205.21 174.723L190.468 181.323L191.934 184.599L206.676 177.999L205.21 174.723Z" fill="#6033FF"/>
</g>
<path d="M201.073 180.991L198.028 182.355C195.998 183.263 193.615 182.355 192.706 180.325L203.103 175.67C204.012 177.7 203.102 180.082 201.073 180.991Z" fill="#6033FF"/>
<path d="M194.646 147.115C193.97 146.55 193.152 146.284 192.341 146.366C191.616 146.439 190.537 146.867 189.883 147.835C189.491 148.417 189.11 149.408 189.524 150.831C189.8 151.782 190.281 153.106 190.861 154.59C190.171 155.078 186.118 156.893 185.295 157.082C184.575 155.661 183.908 154.421 183.382 153.581C182.596 152.324 181.603 151.948 180.908 151.854C179.751 151.696 178.713 152.216 178.174 152.709C177.574 153.259 177.227 154.046 177.198 154.926C177.165 155.95 177.564 156.999 178.266 157.731C179.249 158.757 180.708 159.312 182.602 159.38C183.112 159.398 183.623 159.384 184.131 159.337C186.46 164.072 189.1 170.053 189.137 170.138L191.01 169.312C190.864 168.98 188.473 163.565 186.225 158.958C187.182 158.697 190.807 157.073 191.639 156.534C193.579 161.279 196.025 166.67 196.176 166.999L198.04 166.152C198.001 166.069 195.299 160.116 193.318 155.224C193.691 154.876 194.042 154.505 194.368 154.113C195.578 152.654 196.136 151.196 196.027 149.78C195.948 148.769 195.432 147.773 194.646 147.115ZM182.677 157.335C181.752 157.301 180.494 157.097 179.744 156.315C179.42 155.977 179.229 155.471 179.245 154.993C179.252 154.763 179.312 154.442 179.557 154.218C179.633 154.148 179.754 154.068 179.9 154.003C180.107 153.91 180.367 153.846 180.632 153.883C181.012 153.934 181.353 154.198 181.647 154.667C182.059 155.325 182.568 156.257 183.128 157.341C182.977 157.342 182.827 157.34 182.677 157.335ZM193.986 149.938C194.07 151.019 193.384 152.094 192.794 152.805C192.697 152.921 192.599 153.035 192.498 153.146C192.062 152.006 191.706 151.005 191.49 150.26C191.336 149.729 191.366 149.299 191.581 148.98C191.731 148.759 191.951 148.607 192.158 148.514C192.304 148.449 192.444 148.413 192.547 148.403C192.877 148.369 193.157 148.538 193.333 148.685C193.699 148.992 193.95 149.472 193.986 149.938Z" fill="#6033FF"/>
<path d="M188.6 140.12C189.457 142.445 187.041 145.475 183.205 146.889C179.368 148.303 175.564 147.564 174.708 145.239C173.851 142.914 176.267 139.884 180.103 138.47C183.939 137.057 187.744 137.795 188.6 140.12Z" fill="#FFE361"/>
<path d="M166.475 134.594C166.162 135.417 166.575 136.339 167.399 136.652L172.084 138.434C172.908 138.747 173.829 138.334 174.142 137.511C174.456 136.687 174.042 135.766 173.218 135.452L168.533 133.67C167.71 133.357 166.788 133.769 166.475 134.594Z" fill="white"/>
<path d="M178.235 132.594C178.38 132.212 178.38 131.775 178.2 131.373L176.147 126.8C175.787 125.996 174.842 125.637 174.038 125.998C173.235 126.359 172.876 127.303 173.236 128.106L175.289 132.68C175.65 133.483 176.594 133.842 177.398 133.482C177.8 133.302 178.09 132.975 178.235 132.594Z" fill="white"/>
<path d="M183.92 126.971L182.138 131.656C181.824 132.48 182.238 133.401 183.062 133.714C183.886 134.027 184.807 133.615 185.12 132.791L186.903 128.105C187.216 127.282 186.803 126.36 185.979 126.048C185.156 125.734 184.234 126.147 183.92 126.971Z" fill="white"/>
<path d="M35.5901 76.3602H2.13386C0.955364 76.3602 0 75.4049 0 74.2264C0 73.0479 0.955364 72.0925 2.13386 72.0925H35.5901C36.7686 72.0925 37.724 73.0479 37.724 74.2264C37.724 75.4049 36.7686 76.3602 35.5901 76.3602Z" fill="#FFD100"/>
<path d="M35.5901 89.2873H2.13386C0.955364 89.2873 0 88.3319 0 87.1534C0 85.9749 0.955364 85.0195 2.13386 85.0195H35.5901C36.7686 85.0195 37.724 85.9749 37.724 87.1534C37.724 88.3319 36.7686 89.2873 35.5901 89.2873Z" fill="#FFD100"/>
<path d="M26.7137 102.544H2.13386C0.955364 102.544 0 101.589 0 100.411C0 99.2321 0.955364 98.2767 2.13386 98.2767H26.7137C27.8922 98.2767 28.8475 99.2321 28.8475 100.411C28.8475 101.589 27.8922 102.544 26.7137 102.544Z" fill="#FFD100"/>
<path d="M35.5901 102.544H35.194C34.0155 102.544 33.0602 101.589 33.0602 100.411C33.0602 99.2321 34.0155 98.2767 35.194 98.2767H35.5901C36.7686 98.2767 37.7239 99.2321 37.7239 100.411C37.7239 101.589 36.7686 102.544 35.5901 102.544Z" fill="#FFD100"/>
<defs>
<linearGradient id="paint0_linear_7_213" x1="87.7016" y1="63.3122" x2="88.1005" y2="18.6451" gradientUnits="userSpaceOnUse">
<stop stop-color="white"/>
<stop offset="1" stop-color="white" stop-opacity="0"/>
</linearGradient>
<linearGradient id="paint1_linear_7_213" x1="87.7616" y1="63.3127" x2="88.1605" y2="18.6456" gradientUnits="userSpaceOnUse">
<stop stop-color="white"/>
<stop offset="1" stop-color="white" stop-opacity="0"/>
</linearGradient>
<linearGradient id="paint2_linear_7_213" x1="87.8216" y1="63.3139" x2="88.2205" y2="18.6462" gradientUnits="userSpaceOnUse">
<stop stop-color="white"/>
<stop offset="1" stop-color="white" stop-opacity="0"/>
</linearGradient>
<linearGradient id="paint3_linear_7_213" x1="87.8816" y1="63.3149" x2="88.2804" y2="18.6467" gradientUnits="userSpaceOnUse">
<stop stop-color="white"/>
<stop offset="1" stop-color="white" stop-opacity="0"/>
</linearGradient>
<linearGradient id="paint4_linear_7_213" x1="87.9416" y1="63.315" x2="88.3404" y2="18.6473" gradientUnits="userSpaceOnUse">
<stop stop-color="white"/>
<stop offset="1" stop-color="white" stop-opacity="0"/>
</linearGradient>
<linearGradient id="paint5_linear_7_213" x1="88.0015" y1="63.3151" x2="88.4004" y2="18.6479" gradientUnits="userSpaceOnUse">
<stop stop-color="white"/>
<stop offset="1" stop-color="white" stop-opacity="0"/>
</linearGradient>
<linearGradient id="paint6_linear_7_213" x1="88.0615" y1="63.3155" x2="88.4604" y2="18.6487" gradientUnits="userSpaceOnUse">
<stop stop-color="white"/>
<stop offset="1" stop-color="white" stop-opacity="0"/>
</linearGradient>
<linearGradient id="paint7_linear_7_213" x1="88.1215" y1="63.3162" x2="88.5203" y2="18.6495" gradientUnits="userSpaceOnUse">
<stop stop-color="white"/>
<stop offset="1" stop-color="white" stop-opacity="0"/>
</linearGradient>
<linearGradient id="paint8_linear_7_213" x1="88.1815" y1="63.3169" x2="88.5803" y2="18.6497" gradientUnits="userSpaceOnUse">
<stop stop-color="white"/>
<stop offset="1" stop-color="white" stop-opacity="0"/>
</linearGradient>
<linearGradient id="paint9_linear_7_213" x1="88.2414" y1="63.3175" x2="88.6403" y2="18.6498" gradientUnits="userSpaceOnUse">
<stop stop-color="white"/>
<stop offset="1" stop-color="white" stop-opacity="0"/>
</linearGradient>
<linearGradient id="paint10_linear_7_213" x1="81.2649" y1="63.2546" x2="81.6637" y2="18.5875" gradientUnits="userSpaceOnUse">
<stop stop-color="white"/>
<stop offset="1" stop-color="white" stop-opacity="0"/>
</linearGradient>
<linearGradient id="paint11_linear_7_213" x1="81.3248" y1="63.256" x2="81.7236" y2="18.5884" gradientUnits="userSpaceOnUse">
<stop stop-color="white"/>
<stop offset="1" stop-color="white" stop-opacity="0"/>
</linearGradient>
<linearGradient id="paint12_linear_7_213" x1="81.3848" y1="63.2568" x2="81.7836" y2="18.5886" gradientUnits="userSpaceOnUse">
<stop stop-color="white"/>
<stop offset="1" stop-color="white" stop-opacity="0"/>
</linearGradient>
<linearGradient id="paint13_linear_7_213" x1="81.4447" y1="63.2569" x2="81.8436" y2="18.5892" gradientUnits="userSpaceOnUse">
<stop stop-color="white"/>
<stop offset="1" stop-color="white" stop-opacity="0"/>
</linearGradient>
<linearGradient id="paint14_linear_7_213" x1="81.5047" y1="63.2571" x2="81.9036" y2="18.59" gradientUnits="userSpaceOnUse">
<stop stop-color="white"/>
<stop offset="1" stop-color="white" stop-opacity="0"/>
</linearGradient>
<linearGradient id="paint15_linear_7_213" x1="81.5647" y1="63.2574" x2="81.9636" y2="18.5908" gradientUnits="userSpaceOnUse">
<stop stop-color="white"/>
<stop offset="1" stop-color="white" stop-opacity="0"/>
</linearGradient>
<linearGradient id="paint16_linear_7_213" x1="81.6247" y1="63.2581" x2="82.0235" y2="18.5915" gradientUnits="userSpaceOnUse">
<stop stop-color="white"/>
<stop offset="1" stop-color="white" stop-opacity="0"/>
</linearGradient>
<linearGradient id="paint17_linear_7_213" x1="81.6846" y1="63.2588" x2="82.0835" y2="18.5917" gradientUnits="userSpaceOnUse">
<stop stop-color="white"/>
<stop offset="1" stop-color="white" stop-opacity="0"/>
</linearGradient>
<linearGradient id="paint18_linear_7_213" x1="81.7446" y1="63.2595" x2="82.1435" y2="18.5918" gradientUnits="userSpaceOnUse">
<stop stop-color="white"/>
<stop offset="1" stop-color="white" stop-opacity="0"/>
</linearGradient>
<linearGradient id="paint19_linear_7_213" x1="74.828" y1="63.198" x2="75.2269" y2="18.5303" gradientUnits="userSpaceOnUse">
<stop stop-color="white"/>
<stop offset="1" stop-color="white" stop-opacity="0"/>
</linearGradient>
<linearGradient id="paint20_linear_7_213" x1="74.888" y1="63.1989" x2="75.2868" y2="18.5308" gradientUnits="userSpaceOnUse">
<stop stop-color="white"/>
<stop offset="1" stop-color="white" stop-opacity="0"/>
</linearGradient>
<linearGradient id="paint21_linear_7_213" x1="74.9479" y1="63.1988" x2="75.3468" y2="18.5311" gradientUnits="userSpaceOnUse">
<stop stop-color="white"/>
<stop offset="1" stop-color="white" stop-opacity="0"/>
</linearGradient>
<linearGradient id="paint22_linear_7_213" x1="75.0079" y1="63.1991" x2="75.4067" y2="18.532" gradientUnits="userSpaceOnUse">
<stop stop-color="white"/>
<stop offset="1" stop-color="white" stop-opacity="0"/>
</linearGradient>
<linearGradient id="paint23_linear_7_213" x1="75.0679" y1="63.1995" x2="75.4667" y2="18.5327" gradientUnits="userSpaceOnUse">
<stop stop-color="white"/>
<stop offset="1" stop-color="white" stop-opacity="0"/>
</linearGradient>
<linearGradient id="paint24_linear_7_213" x1="75.1279" y1="63.2001" x2="75.5267" y2="18.5335" gradientUnits="userSpaceOnUse">
<stop stop-color="white"/>
<stop offset="1" stop-color="white" stop-opacity="0"/>
</linearGradient>
<linearGradient id="paint25_linear_7_213" x1="75.1879" y1="63.2009" x2="75.5867" y2="18.5337" gradientUnits="userSpaceOnUse">
<stop stop-color="white"/>
<stop offset="1" stop-color="white" stop-opacity="0"/>
</linearGradient>
<linearGradient id="paint26_linear_7_213" x1="75.2478" y1="63.2015" x2="75.6466" y2="18.5338" gradientUnits="userSpaceOnUse">
<stop stop-color="white"/>
<stop offset="1" stop-color="white" stop-opacity="0"/>
</linearGradient>
<linearGradient id="paint27_linear_7_213" x1="68.3911" y1="63.1408" x2="68.79" y2="18.4726" gradientUnits="userSpaceOnUse">
<stop stop-color="white"/>
<stop offset="1" stop-color="white" stop-opacity="0"/>
</linearGradient>
<linearGradient id="paint28_linear_7_213" x1="68.4511" y1="63.141" x2="68.85" y2="18.4733" gradientUnits="userSpaceOnUse">
<stop stop-color="white"/>
<stop offset="1" stop-color="white" stop-opacity="0"/>
</linearGradient>
<linearGradient id="paint29_linear_7_213" x1="68.5111" y1="63.1411" x2="68.9099" y2="18.4739" gradientUnits="userSpaceOnUse">
<stop stop-color="white"/>
<stop offset="1" stop-color="white" stop-opacity="0"/>
</linearGradient>
<linearGradient id="paint30_linear_7_213" x1="68.5711" y1="63.1414" x2="68.9699" y2="18.4747" gradientUnits="userSpaceOnUse">
<stop stop-color="white"/>
<stop offset="1" stop-color="white" stop-opacity="0"/>
</linearGradient>
<linearGradient id="paint31_linear_7_213" x1="68.631" y1="63.1421" x2="69.0299" y2="18.4755" gradientUnits="userSpaceOnUse">
<stop stop-color="white"/>
<stop offset="1" stop-color="white" stop-opacity="0"/>
</linearGradient>
<linearGradient id="paint32_linear_7_213" x1="68.691" y1="63.1428" x2="69.0899" y2="18.4757" gradientUnits="userSpaceOnUse">
<stop stop-color="white"/>
<stop offset="1" stop-color="white" stop-opacity="0"/>
</linearGradient>
<linearGradient id="paint33_linear_7_213" x1="68.751" y1="63.1435" x2="69.1499" y2="18.4758" gradientUnits="userSpaceOnUse">
<stop stop-color="white"/>
<stop offset="1" stop-color="white" stop-opacity="0"/>
</linearGradient>
<linearGradient id="paint34_linear_7_213" x1="61.9543" y1="63.0829" x2="62.3531" y2="18.4152" gradientUnits="userSpaceOnUse">
<stop stop-color="white"/>
<stop offset="1" stop-color="white" stop-opacity="0"/>
</linearGradient>
<linearGradient id="paint35_linear_7_213" x1="62.0143" y1="63.0831" x2="62.4131" y2="18.416" gradientUnits="userSpaceOnUse">
<stop stop-color="white"/>
<stop offset="1" stop-color="white" stop-opacity="0"/>
</linearGradient>
<linearGradient id="paint36_linear_7_213" x1="62.0742" y1="63.0834" x2="62.4731" y2="18.4167" gradientUnits="userSpaceOnUse">
<stop stop-color="white"/>
<stop offset="1" stop-color="white" stop-opacity="0"/>
</linearGradient>
<linearGradient id="paint37_linear_7_213" x1="62.1342" y1="63.0841" x2="62.5331" y2="18.4175" gradientUnits="userSpaceOnUse">
<stop stop-color="white"/>
<stop offset="1" stop-color="white" stop-opacity="0"/>
</linearGradient>
<linearGradient id="paint38_linear_7_213" x1="62.1942" y1="63.0848" x2="62.5931" y2="18.4177" gradientUnits="userSpaceOnUse">
<stop stop-color="white"/>
<stop offset="1" stop-color="white" stop-opacity="0"/>
</linearGradient>
<linearGradient id="paint39_linear_7_213" x1="62.2542" y1="63.0855" x2="62.653" y2="18.4178" gradientUnits="userSpaceOnUse">
<stop stop-color="white"/>
<stop offset="1" stop-color="white" stop-opacity="0"/>
</linearGradient>
<linearGradient id="paint40_linear_7_213" x1="55.4575" y1="63.025" x2="55.8564" y2="18.3573" gradientUnits="userSpaceOnUse">
<stop stop-color="white"/>
<stop offset="1" stop-color="white" stop-opacity="0"/>
</linearGradient>
<linearGradient id="paint41_linear_7_213" x1="55.5175" y1="63.0251" x2="55.9163" y2="18.3579" gradientUnits="userSpaceOnUse">
<stop stop-color="white"/>
<stop offset="1" stop-color="white" stop-opacity="0"/>
</linearGradient>
<linearGradient id="paint42_linear_7_213" x1="55.5775" y1="63.0255" x2="55.9763" y2="18.3587" gradientUnits="userSpaceOnUse">
<stop stop-color="white"/>
<stop offset="1" stop-color="white" stop-opacity="0"/>
</linearGradient>
<linearGradient id="paint43_linear_7_213" x1="55.6374" y1="63.0261" x2="56.0362" y2="18.3595" gradientUnits="userSpaceOnUse">
<stop stop-color="white"/>
<stop offset="1" stop-color="white" stop-opacity="0"/>
</linearGradient>
<linearGradient id="paint44_linear_7_213" x1="55.6974" y1="63.0268" x2="56.0962" y2="18.3597" gradientUnits="userSpaceOnUse">
<stop stop-color="white"/>
<stop offset="1" stop-color="white" stop-opacity="0"/>
</linearGradient>
<linearGradient id="paint45_linear_7_213" x1="55.7573" y1="63.0275" x2="56.1562" y2="18.3598" gradientUnits="userSpaceOnUse">
<stop stop-color="white"/>
<stop offset="1" stop-color="white" stop-opacity="0"/>
</linearGradient>
<linearGradient id="paint46_linear_7_213" x1="48.9606" y1="62.9669" x2="49.3595" y2="18.2992" gradientUnits="userSpaceOnUse">
<stop stop-color="white"/>
<stop offset="1" stop-color="white" stop-opacity="0"/>
</linearGradient>
<linearGradient id="paint47_linear_7_213" x1="49.0206" y1="62.9671" x2="49.4195" y2="18.2999" gradientUnits="userSpaceOnUse">
<stop stop-color="white"/>
<stop offset="1" stop-color="white" stop-opacity="0"/>
</linearGradient>
<linearGradient id="paint48_linear_7_213" x1="49.0806" y1="62.9674" x2="49.4795" y2="18.3007" gradientUnits="userSpaceOnUse">
<stop stop-color="white"/>
<stop offset="1" stop-color="white" stop-opacity="0"/>
</linearGradient>
<linearGradient id="paint49_linear_7_213" x1="49.1406" y1="62.9681" x2="49.5394" y2="18.3015" gradientUnits="userSpaceOnUse">
<stop stop-color="white"/>
<stop offset="1" stop-color="white" stop-opacity="0"/>
</linearGradient>
<linearGradient id="paint50_linear_7_213" x1="49.2006" y1="62.9688" x2="49.5994" y2="18.3017" gradientUnits="userSpaceOnUse">
<stop stop-color="white"/>
<stop offset="1" stop-color="white" stop-opacity="0"/>
</linearGradient>
<linearGradient id="paint51_linear_7_213" x1="49.2605" y1="62.9694" x2="49.6594" y2="18.3018" gradientUnits="userSpaceOnUse">
<stop stop-color="white"/>
<stop offset="1" stop-color="white" stop-opacity="0"/>
</linearGradient>
<linearGradient id="paint52_linear_7_213" x1="98.3956" y1="175.877" x2="102.783" y2="242.48" gradientUnits="userSpaceOnUse">
<stop stop-color="white"/>
<stop offset="1" stop-color="white" stop-opacity="0"/>
</linearGradient>
<linearGradient id="paint53_linear_7_213" x1="105.084" y1="175.437" x2="109.471" y2="242.04" gradientUnits="userSpaceOnUse">
<stop stop-color="white"/>
<stop offset="1" stop-color="white" stop-opacity="0"/>
</linearGradient>
<linearGradient id="paint54_linear_7_213" x1="111.772" y1="174.996" x2="116.159" y2="241.599" gradientUnits="userSpaceOnUse">
<stop stop-color="white"/>
<stop offset="1" stop-color="white" stop-opacity="0"/>
</linearGradient>
<linearGradient id="paint55_linear_7_213" x1="118.461" y1="174.556" x2="122.848" y2="241.159" gradientUnits="userSpaceOnUse">
<stop stop-color="white"/>
<stop offset="1" stop-color="white" stop-opacity="0"/>
</linearGradient>
<linearGradient id="paint56_linear_7_213" x1="125.149" y1="174.115" x2="129.536" y2="240.718" gradientUnits="userSpaceOnUse">
<stop stop-color="white"/>
<stop offset="1" stop-color="white" stop-opacity="0"/>
</linearGradient>
<linearGradient id="paint57_linear_7_213" x1="131.837" y1="173.675" x2="136.224" y2="240.277" gradientUnits="userSpaceOnUse">
<stop stop-color="white"/>
<stop offset="1" stop-color="white" stop-opacity="0"/>
</linearGradient>
<linearGradient id="paint58_linear_7_213" x1="138.525" y1="173.234" x2="142.912" y2="239.837" gradientUnits="userSpaceOnUse">
<stop stop-color="white"/>
<stop offset="1" stop-color="white" stop-opacity="0"/>
</linearGradient>
<linearGradient id="paint59_linear_7_213" x1="145.214" y1="172.794" x2="149.601" y2="239.396" gradientUnits="userSpaceOnUse">
<stop stop-color="white"/>
<stop offset="1" stop-color="white" stop-opacity="0"/>
</linearGradient>
<linearGradient id="paint60_linear_7_213" x1="151.902" y1="172.353" x2="156.289" y2="238.956" gradientUnits="userSpaceOnUse">
<stop stop-color="white"/>
<stop offset="1" stop-color="white" stop-opacity="0"/>
</linearGradient>
<linearGradient id="paint61_linear_7_213" x1="158.59" y1="171.913" x2="162.977" y2="238.515" gradientUnits="userSpaceOnUse">
<stop stop-color="white"/>
<stop offset="1" stop-color="white" stop-opacity="0"/>
</linearGradient>
<linearGradient id="paint62_linear_7_213" x1="104.658" y1="175.465" x2="109.045" y2="242.068" gradientUnits="userSpaceOnUse">
<stop stop-color="white"/>
<stop offset="1" stop-color="white" stop-opacity="0"/>
</linearGradient>
<linearGradient id="paint63_linear_7_213" x1="111.346" y1="175.024" x2="115.733" y2="241.627" gradientUnits="userSpaceOnUse">
<stop stop-color="white"/>
<stop offset="1" stop-color="white" stop-opacity="0"/>
</linearGradient>
<linearGradient id="paint64_linear_7_213" x1="118.034" y1="174.584" x2="122.421" y2="241.187" gradientUnits="userSpaceOnUse">
<stop stop-color="white"/>
<stop offset="1" stop-color="white" stop-opacity="0"/>
</linearGradient>
<linearGradient id="paint65_linear_7_213" x1="124.723" y1="174.143" x2="129.11" y2="240.746" gradientUnits="userSpaceOnUse">
<stop stop-color="white"/>
<stop offset="1" stop-color="white" stop-opacity="0"/>
</linearGradient>
<linearGradient id="paint66_linear_7_213" x1="131.411" y1="173.703" x2="135.798" y2="240.306" gradientUnits="userSpaceOnUse">
<stop stop-color="white"/>
<stop offset="1" stop-color="white" stop-opacity="0"/>
</linearGradient>
<linearGradient id="paint67_linear_7_213" x1="138.099" y1="173.262" x2="142.486" y2="239.865" gradientUnits="userSpaceOnUse">
<stop stop-color="white"/>
<stop offset="1" stop-color="white" stop-opacity="0"/>
</linearGradient>
<linearGradient id="paint68_linear_7_213" x1="144.787" y1="172.821" x2="149.174" y2="239.425" gradientUnits="userSpaceOnUse">
<stop stop-color="white"/>
<stop offset="1" stop-color="white" stop-opacity="0"/>
</linearGradient>
<linearGradient id="paint69_linear_7_213" x1="151.476" y1="172.381" x2="155.863" y2="238.984" gradientUnits="userSpaceOnUse">
<stop stop-color="white"/>
<stop offset="1" stop-color="white" stop-opacity="0"/>
</linearGradient>
<linearGradient id="paint70_linear_7_213" x1="158.164" y1="171.94" x2="162.551" y2="238.544" gradientUnits="userSpaceOnUse">
<stop stop-color="white"/>
<stop offset="1" stop-color="white" stop-opacity="0"/>
</linearGradient>
<linearGradient id="paint71_linear_7_213" x1="117.608" y1="174.612" x2="121.995" y2="241.214" gradientUnits="userSpaceOnUse">
<stop stop-color="white"/>
<stop offset="1" stop-color="white" stop-opacity="0"/>
</linearGradient>
<linearGradient id="paint72_linear_7_213" x1="124.297" y1="174.172" x2="128.683" y2="240.773" gradientUnits="userSpaceOnUse">
<stop stop-color="white"/>
<stop offset="1" stop-color="white" stop-opacity="0"/>
</linearGradient>
<linearGradient id="paint73_linear_7_213" x1="130.985" y1="173.731" x2="135.372" y2="240.333" gradientUnits="userSpaceOnUse">
<stop stop-color="white"/>
<stop offset="1" stop-color="white" stop-opacity="0"/>
</linearGradient>
<linearGradient id="paint74_linear_7_213" x1="137.673" y1="173.291" x2="142.06" y2="239.892" gradientUnits="userSpaceOnUse">
<stop stop-color="white"/>
<stop offset="1" stop-color="white" stop-opacity="0"/>
</linearGradient>
<linearGradient id="paint75_linear_7_213" x1="144.361" y1="172.85" x2="148.748" y2="239.452" gradientUnits="userSpaceOnUse">
<stop stop-color="white"/>
<stop offset="1" stop-color="white" stop-opacity="0"/>
</linearGradient>
<linearGradient id="paint76_linear_7_213" x1="151.05" y1="172.409" x2="155.436" y2="239.011" gradientUnits="userSpaceOnUse">
<stop stop-color="white"/>
<stop offset="1" stop-color="white" stop-opacity="0"/>
</linearGradient>
<linearGradient id="paint77_linear_7_213" x1="157.738" y1="171.969" x2="162.125" y2="238.571" gradientUnits="userSpaceOnUse">
<stop stop-color="white"/>
<stop offset="1" stop-color="white" stop-opacity="0"/>
</linearGradient>
<linearGradient id="paint78_linear_7_213" x1="117.182" y1="174.64" x2="121.569" y2="241.242" gradientUnits="userSpaceOnUse">
<stop stop-color="white"/>
<stop offset="1" stop-color="white" stop-opacity="0"/>
</linearGradient>
<linearGradient id="paint79_linear_7_213" x1="123.87" y1="174.2" x2="128.257" y2="240.802" gradientUnits="userSpaceOnUse">
<stop stop-color="white"/>
<stop offset="1" stop-color="white" stop-opacity="0"/>
</linearGradient>
<linearGradient id="paint80_linear_7_213" x1="130.559" y1="173.759" x2="134.946" y2="240.361" gradientUnits="userSpaceOnUse">
<stop stop-color="white"/>
<stop offset="1" stop-color="white" stop-opacity="0"/>
</linearGradient>
<linearGradient id="paint81_linear_7_213" x1="137.247" y1="173.319" x2="141.634" y2="239.921" gradientUnits="userSpaceOnUse">
<stop stop-color="white"/>
<stop offset="1" stop-color="white" stop-opacity="0"/>
</linearGradient>
<linearGradient id="paint82_linear_7_213" x1="143.935" y1="172.878" x2="148.322" y2="239.48" gradientUnits="userSpaceOnUse">
<stop stop-color="white"/>
<stop offset="1" stop-color="white" stop-opacity="0"/>
</linearGradient>
<linearGradient id="paint83_linear_7_213" x1="150.623" y1="172.438" x2="155.01" y2="239.039" gradientUnits="userSpaceOnUse">
<stop stop-color="white"/>
<stop offset="1" stop-color="white" stop-opacity="0"/>
</linearGradient>
<linearGradient id="paint84_linear_7_213" x1="157.312" y1="171.997" x2="161.699" y2="238.599" gradientUnits="userSpaceOnUse">
<stop stop-color="white"/>
<stop offset="1" stop-color="white" stop-opacity="0"/>
</linearGradient>
<linearGradient id="paint85_linear_7_213" x1="123.444" y1="174.228" x2="127.831" y2="240.829" gradientUnits="userSpaceOnUse">
<stop stop-color="white"/>
<stop offset="1" stop-color="white" stop-opacity="0"/>
</linearGradient>
<linearGradient id="paint86_linear_7_213" x1="130.133" y1="173.787" x2="134.519" y2="240.389" gradientUnits="userSpaceOnUse">
<stop stop-color="white"/>
<stop offset="1" stop-color="white" stop-opacity="0"/>
</linearGradient>
<linearGradient id="paint87_linear_7_213" x1="136.821" y1="173.347" x2="141.208" y2="239.948" gradientUnits="userSpaceOnUse">
<stop stop-color="white"/>
<stop offset="1" stop-color="white" stop-opacity="0"/>
</linearGradient>
<linearGradient id="paint88_linear_7_213" x1="143.509" y1="172.906" x2="147.896" y2="239.508" gradientUnits="userSpaceOnUse">
<stop stop-color="white"/>
<stop offset="1" stop-color="white" stop-opacity="0"/>
</linearGradient>
<linearGradient id="paint89_linear_7_213" x1="150.197" y1="172.466" x2="154.584" y2="239.067" gradientUnits="userSpaceOnUse">
<stop stop-color="white"/>
<stop offset="1" stop-color="white" stop-opacity="0"/>
</linearGradient>
<linearGradient id="paint90_linear_7_213" x1="156.886" y1="172.025" x2="161.273" y2="238.627" gradientUnits="userSpaceOnUse">
<stop stop-color="white"/>
<stop offset="1" stop-color="white" stop-opacity="0"/>
</linearGradient>
<linearGradient id="paint91_linear_7_213" x1="123.018" y1="174.255" x2="127.405" y2="240.858" gradientUnits="userSpaceOnUse">
<stop stop-color="white"/>
<stop offset="1" stop-color="white" stop-opacity="0"/>
</linearGradient>
<linearGradient id="paint92_linear_7_213" x1="129.706" y1="173.815" x2="134.093" y2="240.417" gradientUnits="userSpaceOnUse">
<stop stop-color="white"/>
<stop offset="1" stop-color="white" stop-opacity="0"/>
</linearGradient>
<linearGradient id="paint93_linear_7_213" x1="136.395" y1="173.374" x2="140.782" y2="239.977" gradientUnits="userSpaceOnUse">
<stop stop-color="white"/>
<stop offset="1" stop-color="white" stop-opacity="0"/>
</linearGradient>
<linearGradient id="paint94_linear_7_213" x1="143.083" y1="172.934" x2="147.47" y2="239.536" gradientUnits="userSpaceOnUse">
<stop stop-color="white"/>
<stop offset="1" stop-color="white" stop-opacity="0"/>
</linearGradient>
<linearGradient id="paint95_linear_7_213" x1="149.771" y1="172.493" x2="154.158" y2="239.096" gradientUnits="userSpaceOnUse">
<stop stop-color="white"/>
<stop offset="1" stop-color="white" stop-opacity="0"/>
</linearGradient>
<linearGradient id="paint96_linear_7_213" x1="156.46" y1="172.053" x2="160.847" y2="238.655" gradientUnits="userSpaceOnUse">
<stop stop-color="white"/>
<stop offset="1" stop-color="white" stop-opacity="0"/>
</linearGradient>
<linearGradient id="paint97_linear_7_213" x1="122.592" y1="174.283" x2="126.979" y2="240.886" gradientUnits="userSpaceOnUse">
<stop stop-color="white"/>
<stop offset="1" stop-color="white" stop-opacity="0"/>
</linearGradient>
<linearGradient id="paint98_linear_7_213" x1="129.28" y1="173.843" x2="133.667" y2="240.446" gradientUnits="userSpaceOnUse">
<stop stop-color="white"/>
<stop offset="1" stop-color="white" stop-opacity="0"/>
</linearGradient>
<linearGradient id="paint99_linear_7_213" x1="135.968" y1="173.402" x2="140.355" y2="240.005" gradientUnits="userSpaceOnUse">
<stop stop-color="white"/>
<stop offset="1" stop-color="white" stop-opacity="0"/>
</linearGradient>
<linearGradient id="paint100_linear_7_213" x1="142.657" y1="172.962" x2="147.044" y2="239.564" gradientUnits="userSpaceOnUse">
<stop stop-color="white"/>
<stop offset="1" stop-color="white" stop-opacity="0"/>
</linearGradient>
<linearGradient id="paint101_linear_7_213" x1="149.345" y1="172.521" x2="153.732" y2="239.124" gradientUnits="userSpaceOnUse">
<stop stop-color="white"/>
<stop offset="1" stop-color="white" stop-opacity="0"/>
</linearGradient>
<linearGradient id="paint102_linear_7_213" x1="156.033" y1="172.081" x2="160.42" y2="238.683" gradientUnits="userSpaceOnUse">
<stop stop-color="white"/>
<stop offset="1" stop-color="white" stop-opacity="0"/>
</linearGradient>
</defs>
</svg>
